<svg version="1.1" xmlns="http://www.w3.org/2000/svg" xmlns:xlink="http://www.w3.org/1999/xlink" width="139.12319" height="128.10343" viewBox="0,0,139.12319,128.10343"><g transform="translate(-170.43842,-115.94829)"><g data-paper-data="{&quot;isPaintingLayer&quot;:true}" fill-rule="nonzero" stroke="#000000" stroke-linejoin="miter" stroke-miterlimit="10" stroke-dasharray="" stroke-dashoffset="0" style="mix-blend-mode: normal"><path d="M211.4982,134.42968c0,0 7.78293,-15.66297 23.42526,-14.9583c15.18788,0.6842 24.90445,12.72769 24.90445,12.72769c0,0 13.32784,-5.81066 26.74541,5.18916c13.68737,11.221 8.94421,24.92396 8.94421,24.92396c0,0 15.92479,14.50636 8.63298,32.95602c-5.11727,12.94766 -19.78599,17.60429 -19.78599,17.60429c0,0 0.389,12.59259 -12.08901,19.14795c-13.70794,7.2015 -26.94652,0.18393 -26.94652,0.18393c0,0 -12.55945,11.08809 -27.70209,7.70544c-12.51907,-2.79658 -20.99938,-19.23021 -20.99938,-19.23021c0,0 -15.14842,-3.10493 -21.47392,-17.04293c-5.37728,-11.84862 8.83384,-26.82557 8.83384,-26.82557c0,0 -5.84237,-14.92159 3.1233,-28.45178c9.30891,-14.04818 24.38747,-13.92966 24.38747,-13.92966z" fill="#f7e9e9" stroke-width="7" stroke-linecap="round"/><path d="M292.11392,188.1481c-3.18664,22.13981 -32.92994,40.11778 -58.63545,39.89629c-35.07604,-0.30225 -47.75464,-18.43506 -47.75464,-40.80302c0,-22.36796 22.95492,-56.51974 48.66138,-56.51974c25.70646,0 63.47136,17.52832 57.72872,57.42648z" fill="#f7e1d7" stroke-width="7" stroke-linecap="butt"/><g><path d="M222.99389,159.23594c1.99218,2.98977 1.196,6.36491 -3.69539,9.20807c-2.43596,1.41592 -6.78413,1.55239 -7.81568,-0.13294c-1.99218,-3.25479 0.52665,-6.89497 2.90032,-8.41301c2.37367,-1.51805 7.51506,-2.30647 8.61075,-0.66212z" fill="#000000" stroke-width="0.5" stroke-linecap="butt"/><path d="M275.23215,174.32379c-2.25303,2.2342 -7.46192,2.66746 -10.56948,-2.16418c-2.0388,-3.16993 -2.85468,-4.64364 -1.1317,-6.74533c1.36874,-1.66959 6.26932,-0.94482 9.24437,1.36911c2.97505,2.31393 3.9898,6.02023 2.45681,7.5404z" fill="#000000" stroke-width="0.5" stroke-linecap="butt"/><path d="M254.14276,197.89518c0,0 0.59968,12.14755 -11.52808,11.83032c-10.90928,-0.28536 -12.33295,-13.41413 -12.58235,-13.01039c-0.11986,0.19403 -5.30723,7.71498 -9.40201,7.4759c-6.1026,-0.35631 -10.08378,-7.62095 -10.08378,-7.62095" fill="none" stroke-width="7" stroke-linecap="round"/></g></g></g></svg>