<svg version="1.1" xmlns="http://www.w3.org/2000/svg" xmlns:xlink="http://www.w3.org/1999/xlink" width="232.21002" height="188.04117" viewBox="0,0,232.21002,188.04117"><g transform="translate(-123.89499,-86.10441)"><g data-paper-data="{&quot;isPaintingLayer&quot;:true}" fill-rule="nonzero" stroke="#000000" stroke-linejoin="miter" stroke-miterlimit="10" stroke-dasharray="" stroke-dashoffset="0" style="mix-blend-mode: normal"><path d="M333.92198,243.70118c0,0 -0.95134,27.53879 -9.50682,26.67448c-9.04516,-0.91377 1.18014,-14.70298 -5.84052,-18.63021c-6.39717,-3.57847 -11.26137,-3.46005 -19.72645,-4.6235c-11.21771,-1.54177 -25.89432,-3.18184 -32.52133,-2.00845c-2.90748,0.51481 -7.18448,-0.58918 -10.43676,2.85188c-5.33949,5.64942 -1.69396,17.95429 -10.2613,16.46663c-6.07973,-1.0557 -2.89369,-9.56741 -4.37249,-14.9058c-1.44295,-5.209 -9.89985,-5.54192 -12.59367,-5.98313c-7.51483,-1.23085 -12.39316,-0.33402 -14.30233,4.99808c-2.23782,6.24999 -6.39324,14.97992 -9.175,14.7184c-7.54088,-0.70894 -4.96695,-29.34995 -4.96695,-29.34995" fill="#f8e9d8" stroke-width="7.5" stroke-linecap="round"/><path d="M242.20673,149.47518c0,0 7.29138,-9.06627 20.46383,-5.92306c13.4652,3.21306 15.81242,12.07768 15.81242,12.07768c0,0 9.01379,-11.0465 26.3087,-4.80317c12.936,4.66978 16.63866,20.55798 16.63866,20.55798c0,0 12.17479,-5.23972 20.47626,4.02931c8.23035,9.18962 2.97355,16.81649 2.97355,16.81649c0,0 10.33554,9.84679 7.09634,25.04886c-2.96015,13.89239 -13.71068,13.79772 -13.71068,13.79772c0,0 0.72243,10.88341 -9.08911,13.49889c-7.84969,2.09252 -16.82288,-2.68644 -16.82288,-2.68644c0,0 -7.2192,8.81216 -17.97379,11.02819c-10.18682,2.09904 -19.60833,-9.14797 -19.60833,-9.14797c0,0 -7.83508,8.92606 -19.10961,7.83701c-11.56184,-1.1168 -16.02876,-11.4169 -16.02876,-11.4169c0,0 -6.63616,10.98554 -19.52863,6.36641c-14.78645,-6.49761 -9.96499,-16.34577 -9.96499,-16.34577c0,0 -17.55611,5.80501 -21.98313,-12.95148c-3.76339,-15.94479 9.7626,-22.11178 9.7626,-22.11178c0,0 -3.5911,-19.8542 10.77359,-34.39044c14.91462,-15.09274 33.51398,-11.28156 33.51398,-11.28156z" fill="#f7f7f7" stroke-width="7" stroke-linecap="round"/><path d="M237.15929,176.53671c-3.28771,22.84198 -33.97433,41.39013 -60.4951,41.16162c-36.18849,-0.31184 -49.2692,-19.01974 -49.2692,-42.09711c0,-23.07737 23.68295,-58.31229 50.2047,-58.31229c26.52175,0 65.48439,18.08424 59.55961,59.24779z" fill="#f8e9d8" stroke-width="7" stroke-linecap="butt"/><g><path d="M165.84709,146.70758c2.05536,3.08459 1.23393,6.56678 -3.81259,9.50011c-2.51322,1.46083 -6.99929,1.60162 -8.06356,-0.13716c-2.05536,-3.35802 0.54335,-7.11365 2.99231,-8.67983c2.44895,-1.5662 7.7534,-2.37962 8.88384,-0.68312z" fill="#000000" stroke-width="0.5" stroke-linecap="butt"/><path d="M219.74211,162.27395c-2.32449,2.30506 -7.69858,2.75206 -10.9047,-2.23282c-2.10346,-3.27047 -2.94522,-4.79092 -1.16759,-6.95926c1.41215,-1.72254 6.46815,-0.97479 9.53756,1.41253c3.06941,2.38732 4.11634,6.21116 2.53473,7.77955z" fill="#000000" stroke-width="0.5" stroke-linecap="butt"/><path d="M197.98386,186.59292c0,0 0.6187,12.53282 -11.8937,12.20552c-11.25527,-0.29441 -12.7241,-13.83957 -12.98141,-13.42302c-0.12366,0.20018 -5.47555,7.95966 -9.7002,7.713c-6.29615,-0.36761 -10.40359,-7.86265 -10.40359,-7.86265" fill="none" stroke-width="7" stroke-linecap="round"/></g><path d="M173.45012,95.77799c0,0 6.28092,-7.72209 21.45265,-5.89343c14.09595,1.69901 17.92647,7.73117 17.70768,8.31572c-0.62198,1.66185 8.76377,-3.07864 19.57738,-0.24263c12.09351,3.25145 14.70162,15.98591 14.09243,15.82601c-0.49122,-0.12893 11.06491,-0.82488 14.35655,9.45404c2.9345,9.16367 -0.79174,14.52662 -0.79174,14.52662c0,0 9.80752,8.31827 4.63504,16.56827c-4.34452,6.92942 -10.98763,3.55969 -11.10878,4.80228c-0.0852,0.87383 -0.59899,6.83066 -8.7756,7.18931c-5.20168,0.22816 -8.96202,-7.25526 -8.96202,-7.25526c0,0 -8.20403,-1.06016 -9.33012,-8.08254c-1.39322,-8.68812 1.21889,-6.66396 0.81751,-6.75109c-0.64224,-0.13942 0.84588,3.44587 -6.60073,-1.71601c-7.44661,-5.16189 -7.98967,-14.6031 -7.50623,-14.04039c0.32892,0.38285 -7.21288,1.64931 -12.07275,1.45491c-5.20878,-0.20834 -14.88747,-6.0888 -14.97614,-6.70321c-0.01778,-0.12316 -8.40428,4.44086 -12.11144,4.44086c-4.1765,0 -11.74115,-4.9301 -11.70773,-4.44086c0.0635,0.9297 -11.82987,7.34319 -18.75542,-1.13338c-6.13356,-7.50723 5.43284,-12.59292 5.43284,-12.59292c0,0 -3.6261,-8.81059 7.31904,-15.16836c8.9537,-5.201 16.90384,1.84577 16.90384,1.84577" fill="#ffffff" stroke-width="7" stroke-linecap="round"/></g></g></svg>