<svg version="1.1" xmlns="http://www.w3.org/2000/svg" xmlns:xlink="http://www.w3.org/1999/xlink" width="211.21015" height="154.83358" viewBox="0,0,211.21015,154.83358"><g transform="translate(-134.39493,-102.46549)"><g data-paper-data="{&quot;isPaintingLayer&quot;:true}" fill-rule="nonzero" stroke="#000000" stroke-linejoin="miter" stroke-miterlimit="10" stroke-dasharray="" stroke-dashoffset="0" style="mix-blend-mode: normal"><path d="M242.54826,160.51499c0,0 6.57534,-8.17593 18.45422,-5.34139c12.14287,2.89753 14.25959,10.89162 14.25959,10.89162c0,0 8.12861,-9.96169 23.7251,-4.33149c11.66564,4.21119 15.00469,18.53912 15.00469,18.53912c0,0 10.97919,-4.72516 18.46543,3.63362c7.4221,8.28717 2.68154,15.16505 2.68154,15.16505c0,0 9.32056,8.8798 6.39945,22.58898c-2.66945,12.52811 -12.36425,12.44274 -12.36425,12.44274c0,0 0.65148,9.81463 -8.19653,12.17326c-7.07883,1.88702 -15.17082,-2.42263 -15.17082,-2.42263c0,0 -6.51025,7.94678 -16.20871,9.94519c-9.18644,1.8929 -17.68273,-8.24961 -17.68273,-8.24961c0,0 -7.06565,8.04949 -17.23298,7.06739c-10.42643,-1.00713 -14.45469,-10.29573 -14.45469,-10.29573c0,0 -5.98447,9.90673 -17.61086,5.74121c-13.33438,-5.85952 -8.9864,-14.74056 -8.9864,-14.74056c0,0 -15.83205,5.23494 -19.82432,-11.6796c-3.39381,-14.37896 8.80388,-19.94033 8.80388,-19.94033c0,0 -3.23844,-17.90445 9.71559,-31.01319c13.44996,-13.61058 30.2228,-10.17368 30.2228,-10.17368z" fill="#f7f7f7" stroke-width="7" stroke-linecap="round"/><path d="M236.88002,184.36075c-2.96484,20.59883 -30.63794,37.32549 -54.55429,37.11942c-32.63467,-0.28121 -44.43081,-17.15194 -44.43081,-37.96304c0,-20.8111 21.3572,-52.58584 45.27444,-52.58584c23.91723,0 59.05361,16.30831 53.71067,53.42947z" fill="#f8e9d8" stroke-width="7" stroke-linecap="butt"/><g><path d="M172.5709,157.46093c1.85352,2.78168 1.11276,5.9219 -3.43818,8.56717c-2.26641,1.31737 -6.31194,1.44434 -7.27169,-0.12369c-1.85352,-3.02825 0.48999,-6.41506 2.69845,-7.82745c2.20846,-1.41239 6.99199,-2.14593 8.01142,-0.61603z" fill="#000000" stroke-width="0.5" stroke-linecap="butt"/><path d="M221.17326,171.49864c-2.09621,2.07869 -6.94255,2.4818 -9.83382,-2.01355c-1.89689,-2.9493 -2.65599,-4.32043 -1.05293,-6.27584c1.27347,-1.55338 5.83296,-0.87906 8.60094,1.27382c2.76798,2.15288 3.7121,5.60121 2.28581,7.01557z" fill="#000000" stroke-width="0.5" stroke-linecap="butt"/><path d="M201.55174,193.42941c0,0 0.55794,11.30205 -10.7257,11.0069c-10.14997,-0.2655 -11.47455,-12.48048 -11.70659,-12.10484c-0.11152,0.18053 -4.93783,7.178 -8.74761,6.95556c-5.67785,-0.33151 -9.38193,-7.09051 -9.38193,-7.09051" fill="none" stroke-width="7" stroke-linecap="round"/></g><path d="M179.42729,111.5328c0,0 5.66411,-6.96376 19.34593,-5.31467c12.71168,1.53216 16.16603,6.97194 15.96873,7.49909c-0.5609,1.49865 7.90314,-2.77631 17.65482,-0.2188c10.90589,2.93215 13.25787,14.41604 12.70851,14.27184c-0.44298,-0.11627 9.9783,-0.74387 12.94669,8.52562c2.64632,8.26376 -0.71399,13.10006 -0.71399,13.10006c0,0 8.84439,7.50139 4.17987,14.94121c-3.91788,6.24893 -9.90861,3.21011 -10.01786,4.33068c-0.07683,0.78802 -0.54017,6.15987 -7.9138,6.4833c-4.69086,0.20576 -8.08192,-6.54277 -8.08192,-6.54277c0,0 -7.39836,-0.95605 -8.41387,-7.28881c-1.2564,-7.83492 1.09919,-6.00954 0.73723,-6.08811c-0.57917,-0.12572 0.76281,3.10747 -5.95252,-1.54749c-6.71533,-4.65498 -7.20506,-13.16903 -6.76909,-12.66158c0.29662,0.34525 -6.50455,1.48734 -10.88717,1.31204c-4.69726,-0.18788 -13.42547,-5.49086 -13.50544,-6.04493c-0.01603,-0.11106 -7.57895,4.00476 -10.92206,4.00476c-3.76635,0 -10.58813,-4.44595 -10.558,-4.00476c0.05727,0.8384 -10.66814,6.62207 -16.91358,-1.02208c-5.53122,-6.76999 4.89932,-11.35626 4.89932,-11.35626c0,0 -3.27,-7.94536 6.60029,-13.67878c8.07442,-4.69025 15.24383,1.66451 15.24383,1.66451" fill="#ffffff" stroke-width="7" stroke-linecap="round"/></g></g></svg>