<svg version="1.1" xmlns="http://www.w3.org/2000/svg" xmlns:xlink="http://www.w3.org/1999/xlink" width="278.75986" height="191.38679" viewBox="0,0,278.75986,191.38679"><g transform="translate(-99.87167,-87.79775)"><g data-paper-data="{&quot;isPaintingLayer&quot;:true}" fill-rule="nonzero" stroke="#000000" stroke-linejoin="miter" stroke-miterlimit="10" stroke-dasharray="" stroke-dashoffset="0" style="mix-blend-mode: normal"><path d="M224.74114,184.87857c-3.63531,25.25703 -37.56637,45.76624 -66.89113,45.51355c-40.01464,-0.3448 -54.47835,-21.03065 -54.47835,-46.54795c0,-25.51729 26.1869,-64.47754 55.51274,-64.47754c29.32584,0 72.40792,19.99626 65.85673,65.51193z" fill="#f8e9d8" stroke-width="7" stroke-linecap="butt"/><path d="M129.3301,158.77597c1.59593,2.3951 0.95811,5.09891 -2.96037,7.37657c-1.95144,1.13429 -5.43475,1.24362 -6.26112,-0.1065c-1.59593,-2.60741 0.4219,-5.52355 2.32344,-6.73964c1.90155,-1.21611 6.02029,-1.84771 6.89805,-0.53043z" fill="#000000" stroke-width="0.5" stroke-linecap="butt"/><path d="M171.17804,170.86281c-1.8049,1.78981 -5.97773,2.13689 -8.46719,-1.73372c-1.63327,-2.53942 -2.28688,-3.72001 -0.9066,-5.40367c1.09649,-1.3375 5.02234,-0.7569 7.40564,1.09679c2.38331,1.85369 3.19622,4.82279 1.96815,6.0406z" fill="#000000" stroke-width="0.5" stroke-linecap="butt"/><path d="M154.28338,189.74579c0,0 0.4804,9.73137 -9.23512,9.47724c-8.7394,-0.2286 -9.87989,-10.74602 -10.07969,-10.42259c-0.09602,0.15544 -4.25161,6.18045 -7.53193,5.98893c-4.88878,-0.28544 -8.07809,-6.10513 -8.07809,-6.10513" fill="none" stroke-width="7" stroke-linecap="round"/><path d="M354.27522,243.81363c0,0 1.50923,28.26707 -7.32379,28.15393c-9.33858,-0.11962 -0.11788,-15.15242 -7.6564,-18.53833c-6.86904,-3.08523 -11.83606,-2.52551 -20.60353,-2.95294c-11.61843,-0.56641 -26.78533,-0.92157 -33.46119,0.87666c-2.9289,0.78895 -7.40522,0.04479 -10.42316,3.85934c-4.95474,6.26261 -0.11481,18.52591 -9.01616,17.77594c-6.31676,-0.53222 -3.82376,-9.52974 -5.81835,-14.85938c-1.94623,-5.20043 -10.63046,-4.7787 -13.42691,-4.98735c-7.80113,-0.58206 -12.71243,0.77551 -14.18542,6.40413c-1.72656,6.59756 -5.19189,15.90581 -8.06214,15.88898c-7.78073,-0.04564 -7.72888,-29.58694 -7.72888,-29.58694" fill="#f8e9d8" stroke-width="7.5" stroke-linecap="round"/><path d="M374.75144,226.90024c1.34089,10.8438 -7.8703,17.77373 -19.03911,13.38953c-5.69422,-2.23521 1.75841,5.40813 -10.07372,11.40362c-3.8476,1.94963 -13.50264,5.00802 -19.41165,-7.83326c-3.10137,-6.7398 -1.47938,4.28747 -17.63305,9.27824c-3.95728,1.22262 -11.67267,-0.53025 -15.9229,-8.86219c-4.44242,-8.7087 1.04386,15.724 -18.80893,13.33076c-3.35814,-0.40483 -8.53186,-2.25561 -8.8559,-8.90309c-0.5801,-11.90004 -3.541,9.16921 -22.40269,4.13353c-5.79547,-1.54727 -9.75422,-3.86766 -11.09051,-10.82003c-1.13524,-5.90639 -7.02125,10.87846 -23.51945,3.34833c-1.78033,-0.81258 -3.43358,-4.10249 -3.26501,-7.35868c0.19746,-3.81427 2.36484,-7.8094 1.80121,-11.1314c-0.60129,-3.54399 -2.22016,-5.29129 -3.04184,-8.4196c-1.00402,-3.82256 1.12153,-7.3534 4.1139,-5.91679c2.01858,0.96909 -6.96601,-6.39208 -6.96601,-11.87836c0,-5.03213 6.33476,-5.88282 8.29639,-9.28202c0.89718,-0.95601 -7.50217,-8.61164 -8.77302,-14.53595c-1.54353,-7.19549 -0.37516,-11.43978 5.50713,-16.15061c4.51116,-3.61276 -11.8364,-15.01606 -3.57779,-17.53269c4.37135,-1.33207 23.08419,-8.74087 31.16004,-7.86369c11.49509,1.24856 12.26502,11.34591 12.23292,11.60983c-0.03238,0.26617 10.81853,-8.13422 16.54049,-8.90606c13.51458,-1.82298 14.81938,7.37106 15.16953,12.86625c0.51825,8.13367 -0.62054,-11.12675 11.19821,-6.50092c14.32346,5.60616 7.65965,22.87307 12.99904,18.29268c5.63317,-4.83241 10.74646,-6.54276 16.91749,-6.54276c5.28307,0 13.81175,5.47683 13.45937,10.76564c-0.70013,10.50793 2.10102,-7.00705 12.21959,-0.59325c4.60941,2.92174 6.91676,6.54729 6.51208,14.25924c-0.35876,6.83708 7.28639,-5.46847 22.17206,6.29645c7.39263,5.84279 3.71018,18.7333 -5.09094,20.00108c-4.96597,0.71534 4.84638,1.24024 7.17306,20.05616z" fill="#ffffff" stroke-width="7.5" stroke-linecap="butt"/><path d="M243.98124,129.47949c3.48248,8.06084 -2.1452,10.98838 -0.96609,13.49816c0.53883,1.14692 2.02352,9.04774 -2.98279,12.77292c-6.36617,4.73705 -15.12726,-0.85959 -15.57684,-0.21377c-0.31197,0.44815 -1.31784,9.32744 -11.53714,6.99545c-6.21416,-1.41804 -13.59631,-8.49129 -14.12382,-8.22479c-0.31505,0.15917 -3.88697,2.64781 -8.52287,-2.79627c-5.87852,-6.27513 -0.73477,-13.28327 -0.83193,-13.02564c-0.44415,1.17764 -1.06054,6.53314 -11.83184,3.58419c-8.46101,-2.31645 -7.28896,-10.2506 -7.49844,-10.55105c-0.01089,-0.0156 -4.02337,14.34323 -19.21397,13.2196c-18.99673,-1.40517 -13.94607,-15.23786 -13.78709,-15.51258c0.19784,-0.34187 -8.48891,7.35784 -15.51134,1.85789c-3.59119,-2.8126 -5.08924,-9.51773 -1.72742,-13.35427c5.96637,-6.8089 9.85656,-2.93856 14.81411,-5.62079c7.60936,-4.11696 -2.51939,-15.38368 9.93483,-20.56078c12.07172,-5.0181 15.02366,9.97615 15.14457,10.10328c0.09955,0.10468 13.86367,-16.92804 26.84026,-17.08327c16.80404,-0.20103 21.88038,12.31378 21.3089,16.74384c-0.92762,7.19088 0.77713,-2.39296 6.16854,-2.83918c19.81144,-1.63969 18.90836,21.02784 17.82081,22.51814c-0.41253,0.56531 8.23614,-0.40741 12.07957,8.48891z" fill="#ffffff" stroke-width="7.5" stroke-linecap="round"/></g></g></svg>