<svg version="1.1" xmlns="http://www.w3.org/2000/svg" xmlns:xlink="http://www.w3.org/1999/xlink" width="168.24085" height="154.7925" viewBox="0,0,168.24085,154.7925"><g transform="translate(-155.87957,-102.60375)"><g data-paper-data="{&quot;isPaintingLayer&quot;:true}" fill-rule="nonzero" stroke="#000000" stroke-linejoin="miter" stroke-miterlimit="10" stroke-dasharray="" stroke-dashoffset="0" style="mix-blend-mode: normal"><path d="M205.21688,124.38677c0,0 9.49815,-19.11482 28.58778,-18.25485c18.53502,0.83499 30.39296,15.53265 30.39296,15.53265c0,0 16.26506,-7.09123 32.63963,6.33276c16.70383,13.69391 10.91536,30.41677 10.91536,30.41677c0,0 19.43434,17.70331 10.53554,40.21895c-6.24503,15.8011 -24.14648,21.48397 -24.14648,21.48397c0,0 0.47473,15.36778 -14.75322,23.36782c-16.72893,8.78858 -32.88506,0.22446 -32.88506,0.22446c0,0 -15.32733,13.53171 -33.80715,9.40358c-15.27805,-3.4129 -25.62728,-23.46821 -25.62728,-23.46821c0,0 -18.48687,-3.7892 -26.2064,-20.79889c-6.56234,-14.45985 10.78066,-32.73746 10.78066,-32.73746c0,0 -7.12993,-18.21005 3.81162,-34.72206c11.36043,-17.14415 29.76204,-16.99951 29.76204,-16.99951z" fill="#f7f7f7" stroke-width="7" stroke-linecap="round"/><path d="M292.11392,188.14811c-3.18664,22.13981 -32.92994,40.11778 -58.63545,39.89629c-35.07604,-0.30225 -47.75464,-18.43506 -47.75464,-40.80302c0,-22.36796 22.95492,-56.51974 48.66138,-56.51974c25.70646,0 63.47136,17.52832 57.72872,57.42648z" fill="#f8e9d8" stroke-width="7" stroke-linecap="butt"/><g><path d="M222.99389,159.23595c1.99218,2.98977 1.196,6.36491 -3.69539,9.20807c-2.43596,1.41592 -6.78413,1.55239 -7.81568,-0.13294c-1.99218,-3.25479 0.52665,-6.89497 2.90032,-8.41301c2.37367,-1.51805 7.51506,-2.30647 8.61075,-0.66212z" fill="#000000" stroke-width="0.5" stroke-linecap="butt"/><path d="M275.23215,174.3238c-2.25303,2.2342 -7.46192,2.66746 -10.56948,-2.16418c-2.0388,-3.16993 -2.85468,-4.64364 -1.1317,-6.74533c1.36874,-1.66959 6.26932,-0.94482 9.24437,1.36911c2.97505,2.31393 3.9898,6.02023 2.45681,7.5404z" fill="#000000" stroke-width="0.5" stroke-linecap="butt"/><path d="M254.14276,197.89519c0,0 0.59968,12.14755 -11.52808,11.83032c-10.90928,-0.28536 -12.33295,-13.41413 -12.58235,-13.01039c-0.11986,0.19403 -5.30723,7.71498 -9.40201,7.4759c-6.1026,-0.35631 -10.08378,-7.62095 -10.08378,-7.62095" fill="none" stroke-width="7" stroke-linecap="round"/></g></g></g></svg>