<svg version="1.1" xmlns="http://www.w3.org/2000/svg" xmlns:xlink="http://www.w3.org/1999/xlink" width="346.1723" height="246.63062" viewBox="0,0,346.1723,246.63062"><g transform="translate(-65.75674,-59.68277)"><g data-paper-data="{&quot;isPaintingLayer&quot;:true}" fill-rule="nonzero" stroke-linejoin="miter" stroke-miterlimit="10" stroke-dasharray="" stroke-dashoffset="0" style="mix-blend-mode: normal"><path d="M220.76071,189.52344c-4.53791,31.52802 -46.89362,57.12941 -83.49935,56.81399c-49.94976,-0.43041 -68.00462,-26.2523 -68.00462,-58.10521c0,-31.85291 32.68877,-80.48649 69.29585,-80.48649c36.60708,0 90.38589,24.96107 82.20812,81.77772z" fill="#f8e9d8" stroke="#000000" stroke-width="7" stroke-linecap="butt"></path><path d="M230.57008,108.90189c0,0 2.48488,-30.15591 -22.24549,-28.10911c-6.73003,0.55701 -8.85804,12.52039 -7.70011,3.54411c0.71337,-5.52999 -5.62336,-21.15206 -26.59963,-20.90112c-16.19851,0.19378 -33.38008,21.4555 -33.50435,21.32483c-0.15092,-0.1587 -3.8358,-18.87582 -18.90477,-12.6118c-15.54645,6.4625 -2.90285,20.52661 -12.40152,25.66576c-6.18846,3.3482 -11.04453,-1.48309 -18.49227,7.01637c-4.19651,4.78911 -2.32652,13.15903 2.15632,16.66997c8.76601,6.8655 19.60957,-2.74595 19.36261,-2.31919c-0.19846,0.34294 -6.50313,17.61011 17.21025,19.36416c18.96223,1.40261 23.97096,-16.52134 23.98455,-16.50186c0.26149,0.37505 -1.20157,10.27915 9.3602,13.17074c13.44568,3.68114 16.56954,-11.41695 16.56954,-11.41695" fill="#ffffff" stroke="#000000" stroke-width="7.5" stroke-linecap="round"></path><path d="M101.66031,156.9399c1.99218,2.98977 1.196,6.36491 -3.69539,9.20807c-2.43596,1.41592 -6.78413,1.55239 -7.81568,-0.13294c-1.99218,-3.25479 0.52665,-6.89497 2.90032,-8.41301c2.37367,-1.51805 7.51506,-2.30647 8.61075,-0.66212z" fill="#000000" stroke="#000000" stroke-width="0.5" stroke-linecap="butt"></path><path d="M153.89857,172.02774c-2.25303,2.2342 -7.46192,2.66746 -10.56948,-2.16418c-2.0388,-3.16993 -2.85468,-4.64364 -1.1317,-6.74533c1.36874,-1.66959 6.26932,-0.94482 9.24437,1.36911c2.97505,2.31393 3.9898,6.02023 2.45681,7.5404z" fill="#000000" stroke="#000000" stroke-width="0.5" stroke-linecap="butt"></path><path d="M89.21296,194.27401c0,0 3.98118,7.26464 10.08378,7.62095c4.09478,0.23908 9.28215,-7.28187 9.40201,-7.4759c0.2494,-0.40374 1.67307,12.72503 12.58235,13.01039c12.12776,0.31723 11.52808,-11.83032 11.52808,-11.83032" fill="none" stroke="#000000" stroke-width="7" stroke-linecap="round"></path><path d="M210.55989,265.6304c0,0 -0.06472,36.87603 9.64787,36.933c3.58289,0.02101 7.90861,-11.59836 10.06386,-19.83401c1.83872,-7.02614 7.96943,-8.72077 17.70748,-7.99419c3.49077,0.26045 14.33118,-0.266 16.76064,6.22564c2.48982,6.65291 -0.62216,17.88441 7.26297,18.54877c11.11144,0.93618 5.06982,-14.37194 11.25476,-22.18948c3.76725,-4.76166 9.35499,-3.83274 13.0111,-4.81757c8.33338,-2.24471 27.26603,-1.80136 41.76917,-1.09432c10.94433,0.53355 17.14459,-0.16514 25.71913,3.68611c9.41024,4.22659 -2.09984,22.99184 9.55739,23.14116c11.02614,0.14124 9.14219,-35.14419 9.14219,-35.14419" fill="#f8e9d8" stroke="#000000" stroke-width="7.5" stroke-linecap="round"></path><path d="M408.01665,241.97856c1.67381,13.53617 -9.82439,22.18673 -23.76627,16.71397c-7.10802,-2.79019 2.195,6.75091 -12.57489,14.23499c-4.80291,2.4337 -16.85518,6.25145 -24.23132,-9.77816c-3.8714,-8.41321 -1.84669,5.352 -22.01111,11.58191c-4.93982,1.52618 -14.57084,-0.6619 -19.87635,-11.06256c-5.54541,-10.87096 1.30304,19.62807 -23.47894,16.64062c-4.19193,-0.50534 -10.65022,-2.81565 -11.05471,-11.11361c-0.72413,-14.85467 -4.42018,11.44581 -27.96499,5.15983c-7.23441,-1.93144 -12.17607,-4.82795 -13.84414,-13.50651c-1.41711,-7.37287 -8.76454,13.57944 -29.35903,4.17968c-2.22237,-1.01434 -4.28609,-5.12108 -4.07567,-9.18574c0.24649,-4.76131 2.952,-9.74837 2.24843,-13.89518c-0.75059,-4.42391 -2.7714,-6.60505 -3.79709,-10.51009c-1.25331,-4.77166 1.4,-9.17916 5.13533,-7.38585c2.51976,1.20971 -8.69558,-7.97915 -8.69558,-14.82761c0,-6.28154 2.85882,-7.34345 5.3075,-11.58663c3.25663,-5.64324 -1.7606,-13.95272 4.7707,-19.63819c10.64168,-9.26353 38.42362,-43.20045 66.54936,-46.99434c16.87007,-2.27561 18.49885,9.2012 18.93592,16.06077c0.64693,10.15315 -0.77461,-13.88938 13.97859,-8.11501c17.87979,6.9981 9.56144,28.55217 16.22654,22.83452c7.03181,-6.03224 13.41467,-8.16724 21.11789,-8.16724c6.59479,0 17.24104,6.83666 16.80116,13.43862c-0.87396,13.11691 2.62268,-8.7468 15.25356,-0.74055c5.75387,3.64717 8.6341,8.1729 8.12895,17.79963c-0.44784,8.53465 9.09551,-6.82622 27.67709,7.85977c9.22813,7.29348 4.63137,23.38454 -6.35496,24.9671c-6.19896,0.89294 6.04967,1.54817 8.95403,25.03585z" fill="#ffffff" stroke="#000000" stroke-width="7.5" stroke-linecap="butt"></path><path d="M267.73931,138.31888c-1.09307,19.59688 -15.73005,34.63525 -45.15562,35.19926c-22.58432,0.43288 -40.87392,-19.83474 -41.93739,-39.02089c-1.33197,-24.03017 27.19422,-41.23341 45.35675,-41.23341c2.54532,0 5.22939,0.30262 7.95878,0.90464c16.7466,3.69378 35.19936,18.65877 33.77748,44.15041z" fill="#fff396" stroke="none" stroke-width="0" stroke-linecap="butt"></path><path d="M180.6463,122.02665c0,0 -1.67493,-8.3213 5.04904,-16.4764c7.60277,-9.22096 25.5015,-18.76411 52.30662,-6.69334c19.78648,8.91016 24.11411,36.47024 18.49594,49.52628c-10.6214,24.68302 -31.79649,26.62237 -39.27825,25.45498c-16.01129,-2.49826 -22.14188,-14.83943 -21.54367,-21.58101c1.28831,-14.51858 13.34222,-16.4592 19.18843,-15.26528c3.76173,0.76823 13.54679,6.55279 11.7272,15.42408c-0.91966,4.48376 -5.71758,2.99969 -5.71758,2.99969" fill="none" stroke="#000000" stroke-width="7.5" stroke-linecap="round"></path></g></g></svg>