<svg version="1.1" xmlns="http://www.w3.org/2000/svg" xmlns:xlink="http://www.w3.org/1999/xlink" width="217.64457" height="229.01212" viewBox="0,0,217.64457,229.01212"><g transform="translate(-131.76012,-65.68833)"><g data-paper-data="{&quot;isPaintingLayer&quot;:true}" fill-rule="nonzero" stroke-linejoin="miter" stroke-miterlimit="10" stroke-dasharray="" stroke-dashoffset="0" style="mix-blend-mode: normal"><path d="M347.4047,185.76865c0,59.05681 -47.72402,106.9318 -106.59457,106.9318c-58.87055,0 -106.59456,-47.875 -106.59456,-106.9318c0,-59.0568 47.72401,-106.9318 106.59456,-106.9318c58.87055,0 106.59457,47.875 106.59457,106.9318z" fill="#a15e08" stroke="#4a341c" stroke-width="4" stroke-linecap="butt"/><path d="M346.94925,174.62013c0,59.05681 -47.72402,106.9318 -106.59457,106.9318c-58.87055,0 -106.59456,-47.875 -106.59456,-106.9318c0,-59.0568 47.72401,-106.9318 106.59456,-106.9318c58.87055,0 106.59457,47.875 106.59457,106.9318z" fill="#f9cc44" stroke="#4a341c" stroke-width="4" stroke-linecap="butt"/><path d="M329.30569,173.92045c0,49.69895 -40.33427,89.98792 -90.08911,89.98792c-49.75484,0 -90.08911,-40.28896 -90.08911,-89.98792c0,-49.69895 40.33427,-89.98791 90.08911,-89.98791c49.75484,0 90.08911,40.28896 90.08911,89.98791z" fill="#eab533" stroke="#4a341c" stroke-width="3" stroke-linecap="butt"/><path d="M268.47707,157.164l-49.24545,76.66597c0,0 3.2782,9.07412 12.4218,11.26033c8.6025,2.05684 16.39231,-5.1999 16.39231,-5.1999c0,0 8.64954,5.03789 16.07724,2.66976c8.6602,-2.76108 11.06304,-11.07717 11.06304,-11.07717c0,0 10.47934,2.99912 19.209,-3.13305c7.16736,-5.03473 6.79608,-15.54176 6.79608,-15.54176c0,0 8.52127,-3.3062 10.31139,-12.05065c1.7475,-8.53625 -4.29885,-16.63142 -4.29885,-16.63142c0,0 4.50646,-7.89288 2.34553,-16.3242c-2.28503,-8.9155 -10.2289,-12.42442 -10.2289,-12.42442" fill="#fcd66c" stroke="#4a341c" stroke-width="5" stroke-linecap="round"/><path d="M254.34703,215.55265c-10.53374,14.83986 -36.6827,23.47658 -55.83651,16.1353c-5.74913,-2.20353 -14.63879,-7.31348 -18.27538,-17.4526c-4.63352,-12.91864 -1.27886,-33.5133 4.36465,-42.0051c4.30838,-6.48284 11.93648,-17.17755 21.572,-22.94659c12.89179,-7.71865 28.40837,-9.20302 35.08187,-4.76792c3.65068,2.42619 21.07401,15.65212 21.314,16.01737c4.20961,6.40666 5.03746,9.93229 4.32065,20.38024c-0.91206,13.29366 -6.79302,26.54119 -12.54128,34.6393z" fill="#ebc463" stroke="#4a341c" stroke-width="4.5" stroke-linecap="butt"/><path d="M276.11961,190.58912c-8.84078,-5.94045 -14.9978,-20.28108 -9.48568,-26.2773c5.51212,-5.57252 20.55655,-0.02169 28.06383,7.53403c7.50729,7.55572 10.04793,15.90464 6.52871,20.11214c-3.42387,4.09349 -15.45672,5.11542 -25.10686,-1.36886z" fill="#eab533" stroke="#4a341c" stroke-width="5" stroke-linecap="butt"/><path d="M192.66574,156.09722c1.78471,3.7925 0.69251,11.44409 -6.62478,14.88752c-7.3173,3.44343 -20.38774,4.48445 -23.08776,-0.98918c-2.24482,-4.55082 5.55748,-13.22981 12.87478,-16.67324c7.3173,-3.44343 15.05307,-1.0176 16.83777,2.7749z" fill="#eab533" stroke="#4a341c" stroke-width="5" stroke-linecap="butt"/><path d="M276.20232,160.27853c0,0 -3.97762,5.42267 -10.34481,5.8137c-2.43811,0.14973 -5.89618,-3.84517 -5.89618,-3.84517c0,0 -3.97334,3.87447 -11.60254,4.32548c-5.8415,0.34533 -11.12988,-6.62584 -11.12988,-6.62584c0,0 -7.75941,6.70802 -15.82113,5.5136c-7.53257,-1.11603 -14.97426,-10.23512 -14.97426,-10.23512c0,0 -5.18536,5.81761 -12.94199,5.31276c-4.82588,-0.3141 -11.11878,-6.0913 -11.27814,-9.39534c-0.56774,-11.77136 10.80322,-15.12058 10.80322,-15.12058c0,0 2.90791,-12.67632 6.09272,-16.47126c7.09295,-8.45176 18.34369,-5.2338 18.34369,-5.2338c0,0 5.1302,-10.14755 17.51699,-11.13614c12.41774,-0.99106 18.51451,7.87473 18.51451,7.87473c0,0 11.86322,-4.06167 19.3189,0.05588c8.02772,4.43346 10.3582,14.96197 10.3582,14.96197c0,0 11.06761,1.8777 15.54192,9.91204c5.88434,10.56625 0.71306,18.75738 0.71306,18.75738" fill="#fcd66c" stroke="#4a341c" stroke-width="5" stroke-linecap="round"/><path d="M201.06634,182.66218c-1.02539,4.06905 -4.12932,7.6352 -6.78718,6.9458c-2.65786,-0.6894 -3.86318,-5.37329 -2.83779,-9.44234c1.02539,-4.06905 4.12932,-7.51715 6.78718,-6.82775c2.65786,0.6894 3.86318,5.25524 2.83779,9.32429z" fill="#4a341c" stroke="none" stroke-width="0" stroke-linecap="butt"/><path d="M241.72004,188.72471c-1.02539,4.06905 -3.24233,6.86035 -6.96426,6.35551c-4.01917,-0.54516 -4.45347,-5.43232 -3.42809,-9.50137c1.02539,-4.06905 2.71262,-8.16647 7.37748,-6.76872c2.63028,0.78812 4.04026,5.84553 3.01487,9.91458z" fill="#4a341c" stroke="none" stroke-width="0" stroke-linecap="butt"/><path d="M196.40281,211.5073c0,0 3.19078,6.51087 6.10199,6.88358c3.28292,0.42031 11.44899,-4.29303 11.44899,-4.29303" fill="none" stroke="#492c11" stroke-width="4" stroke-linecap="round"/><path d="M203.07348,218.63131c0,0 -2.0441,2.91094 -0.69787,7.17152c0.72306,2.28836 5.87896,8.37178 5.87896,8.37178" fill="none" stroke="#492c11" stroke-width="4" stroke-linecap="round"/></g></g></svg>