<svg version="1.1" xmlns="http://www.w3.org/2000/svg" xmlns:xlink="http://www.w3.org/1999/xlink" width="271.14405" height="261.06801" viewBox="0,0,271.14405,261.06801"><g transform="translate(-104.10158,-48.64132)"><g data-paper-data="{&quot;isPaintingLayer&quot;:true}" fill="#8aca85" fill-rule="nonzero" stroke="#502829" stroke-width="8" stroke-linecap="butt" stroke-linejoin="miter" stroke-miterlimit="10" stroke-dasharray="" stroke-dashoffset="0" style="mix-blend-mode: normal"><path d="M121.395,289.93261c-13.52019,-16.73845 -13.29318,-39.82718 -13.29318,-39.82718l0.29758,-150.66289c0,0 -2.12427,-15.15787 14.17561,-32.14173c13.55744,-14.12634 32.8854,-14.54241 32.8854,-14.54241l169.82311,-0.11693c0,0 22.76932,2.53019 34.65981,17.92813c9.81448,12.70955 11.30231,34.64176 11.30231,34.64176l0.37302,147.05496c0,0 2.03607,21.55101 -12.95998,37.29119c-15.83635,16.62219 -37.57898,16.15046 -37.57898,16.15046l-163.00821,-0.14625c0,0 -24.14861,-0.11917 -36.67649,-15.62911z"/></g></g></svg>