<svg version="1.1" xmlns="http://www.w3.org/2000/svg" xmlns:xlink="http://www.w3.org/1999/xlink" width="271.14405" height="261.06801" viewBox="0,0,271.14405,261.06801"><g transform="translate(-104.10158,-48.6413)"><g data-paper-data="{&quot;isPaintingLayer&quot;:true}" fill-rule="nonzero" stroke-linecap="butt" stroke-linejoin="miter" stroke-miterlimit="10" stroke-dasharray="" stroke-dashoffset="0" style="mix-blend-mode: normal"><path d="M121.395,289.9326c-13.52019,-16.73845 -13.29318,-39.82718 -13.29318,-39.82718l0.29758,-150.66289c0,0 -2.12427,-15.15787 14.17561,-32.14173c13.55744,-14.12634 32.8854,-14.54241 32.8854,-14.54241l169.82311,-0.11693c0,0 22.76932,2.53019 34.65981,17.92813c9.81448,12.70955 11.30231,34.64176 11.30231,34.64176l0.37302,147.05496c0,0 2.03607,21.55101 -12.95998,37.29119c-15.83635,16.62219 -37.57898,16.15046 -37.57898,16.15046l-163.00821,-0.14625c0,0 -24.14861,-0.11917 -36.67649,-15.62911z" fill="#fba185" stroke="#502829" stroke-width="8"/><path d="M130.68835,278.90777c-12.14991,-14.92663 -8.86648,-36.73079 -8.86648,-36.73079l0.26743,-134.35467c0,0 -3.33025,-15.9464 11.31763,-31.09187c12.18339,-12.59727 30.97373,-10.53902 30.97373,-10.53902l152.61148,-0.10427c0,0 17.14533,-3.33101 32.80518,15.7446c11.89921,14.73481 8.49866,31.13495 8.49866,31.13495l0.33521,131.13727c0,0 2.06658,21.16168 -11.4096,35.1981c-14.23133,14.82295 -34.00721,12.45886 -34.00721,12.45886l-146.48727,-0.13042c0,0 -24.78057,1.10836 -36.03875,-12.72273z" fill="#f47461" stroke="none" stroke-width="0"/><path d="M271.9368,179.84347l0.28213,30.79666c0,0 0.27346,4.95587 -3.16933,8.53224c-3.4428,3.57637 -8.70121,3.44769 -8.70121,3.44769l-39.40757,-0.6433c0,0 -4.05541,0.62475 -8.69606,-3.42177c-3.88852,-3.39069 -3.91763,-9.63495 -3.91763,-9.63495l0.34593,-28.59439c0,0 0.2443,-2.8241 -0.46223,-3.50057c-0.76029,-0.72795 -3.95004,-0.53115 -3.95004,-0.53115l-35.18301,-0.07922c0,0 -6.11617,-0.63801 -8.18904,-5.41407c-2.26667,-5.22259 1.66857,-9.89867 1.66857,-9.89867l71.57124,-71.37476c0,0 1.72619,-1.58589 5.83024,-1.58306c4.80396,0.00332 6.2395,1.75352 6.2395,1.75352l70.96566,71.15912c0,0 3.37019,4.19957 1.53744,9.21608c-1.66345,4.55312 -7.16731,5.87335 -7.16731,5.87335l-35.52785,0.48898c0,0 -2.97035,-0.34026 -3.67449,0.26989c-0.71799,0.62214 -0.39493,3.13839 -0.39493,3.13839z" fill="#ffde7e" stroke="#532a29" stroke-width="7.5"/><path d="M213.5026,243.64661c-2.01858,-2.12194 -1.69821,-5.12788 -1.69821,-5.12788c0,0 -0.06591,-3.4471 1.87049,-5.45659c1.9364,-2.00949 5.33414,-2.01997 5.33414,-2.01997l42.62708,0.69382c0,0 2.96803,0.32314 4.68554,2.37459c1.71751,2.05145 1.61303,5.14863 1.61303,5.14863c0,0 -0.0399,2.83468 -1.86078,4.86002c-1.82088,2.02534 -4.67863,2.4137 -4.67863,2.4137l-42.62708,-0.69382c0,0 -3.247,-0.07056 -5.26558,-2.1925z" fill="#ffde7e" stroke="#532a29" stroke-width="7.5"/><path d="M215.31384,267.44297c-1.85245,-2.13479 -1.50599,-5.13823 -1.50599,-5.13823c0,0 -0.00747,-3.44705 1.83305,-5.44365c1.84053,-1.9966 5.01487,-1.98496 5.01487,-1.98496l39.81139,0.97127c0,0 2.76767,0.34242 4.33996,2.40477c1.5723,2.06235 1.42609,5.15842 1.42609,5.15842c0,0 -0.08177,2.83403 -1.81462,4.84723c-1.73285,2.0132 -4.40867,2.3829 -4.40867,2.3829l-39.81139,-0.97127c0,0 -3.03225,-0.09169 -4.8847,-2.22648z" fill="#ffde7e" stroke="#532a29" stroke-width="7.5"/></g></g></svg>