<svg version="1.1" xmlns="http://www.w3.org/2000/svg" xmlns:xlink="http://www.w3.org/1999/xlink" width="271.14405" height="261.06801" viewBox="0,0,271.14405,261.06801"><g transform="translate(-104.10158,-48.64131)"><g data-paper-data="{&quot;isPaintingLayer&quot;:true}" fill-rule="nonzero" stroke-linecap="butt" stroke-linejoin="miter" stroke-miterlimit="10" stroke-dasharray="" stroke-dashoffset="0" style="mix-blend-mode: normal"><path d="M121.395,289.9326c-13.52019,-16.73845 -13.29318,-39.82718 -13.29318,-39.82718l0.29758,-150.66289c0,0 -2.12427,-15.15787 14.17561,-32.14173c13.55744,-14.12634 32.8854,-14.54241 32.8854,-14.54241l169.82311,-0.11693c0,0 22.76932,2.53019 34.65981,17.92813c9.81448,12.70955 11.30231,34.64176 11.30231,34.64176l0.37302,147.05496c0,0 2.03607,21.55101 -12.95998,37.29119c-15.83635,16.62219 -37.57898,16.15046 -37.57898,16.15046l-163.00821,-0.14625c0,0 -24.14861,-0.11917 -36.67649,-15.62911z" fill="#dddddd" stroke="#4f4f4f" stroke-width="8"/><path d="M130.68835,278.90777c-12.14991,-14.92663 -8.86648,-36.73079 -8.86648,-36.73079l0.26743,-134.35467c0,0 -3.33025,-15.9464 11.31763,-31.09187c12.18339,-12.59727 30.97373,-10.53902 30.97373,-10.53902l152.61148,-0.10427c0,0 17.14533,-3.33101 32.80518,15.7446c11.89921,14.73481 8.49866,31.13495 8.49866,31.13495l0.33521,131.13727c0,0 2.06658,21.16168 -11.4096,35.1981c-14.23133,14.82295 -34.00721,12.45886 -34.00721,12.45886l-146.48727,-0.13042c0,0 -24.78057,1.10836 -36.03875,-12.72273z" fill="#c1c1c1" stroke="none" stroke-width="0"/><path d="M271.9368,179.84347l0.28213,45.73846c0,0 -0.44662,4.4158 -3.88942,7.99217c-3.56624,3.70459 -9.4213,3.62771 -9.4213,3.62771l-37.96739,0.25681c0,0 -5.31556,-0.81542 -8.69606,-3.78182c-3.24723,-2.84948 -3.91763,-8.91487 -3.91763,-8.91487l0.34593,-44.43629c0,0 0.2443,-2.8241 -0.46223,-3.50057c-0.76029,-0.72795 -3.95004,-0.53115 -3.95004,-0.53115l-35.18301,-0.07922c0,0 -6.11617,-0.63801 -8.18904,-5.41407c-2.26667,-5.22259 1.66857,-9.89867 1.66857,-9.89867l71.57124,-71.37476c0,0 1.72619,-1.58589 5.83024,-1.58306c4.80396,0.00332 6.2395,1.75352 6.2395,1.75352l70.96566,71.15912c0,0 3.37019,4.19957 1.53744,9.21608c-1.66345,4.55312 -7.16731,5.87335 -7.16731,5.87335l-35.52785,0.48898c0,0 -2.97035,-0.34026 -3.67449,0.26989c-0.71799,0.62214 -0.39493,3.13839 -0.39493,3.13839z" fill="#ececec" stroke="#545454" stroke-width="7.5"/><text transform="translate(154.77686,278.02044) scale(0.9219,0.9219)" font-size="40" xml:space="preserve" fill="#532a29" fill-rule="nonzero" stroke="#545454" stroke-width="3" stroke-linecap="butt" stroke-linejoin="miter" stroke-miterlimit="10" stroke-dasharray="" stroke-dashoffset="0" font-family="Handwriting" font-weight="normal" text-anchor="start" style="mix-blend-mode: normal"><tspan x="0" dy="0">UPGRADE</tspan></text></g></g></svg>