<svg version="1.1" xmlns="http://www.w3.org/2000/svg" xmlns:xlink="http://www.w3.org/1999/xlink" width="405.40074" height="301.53131" viewBox="0,0,405.40074,301.53131"><g transform="translate(-7.68541,-1.78395)"><g data-paper-data="{&quot;isPaintingLayer&quot;:true}" fill-rule="nonzero" stroke-linejoin="miter" stroke-miterlimit="10" stroke-dasharray="" stroke-dashoffset="0" style="mix-blend-mode: normal"><path d="M221.91782,186.52536c-4.53791,31.52802 -46.89362,57.12941 -83.49935,56.81399c-49.94976,-0.43041 -68.00462,-26.2523 -68.00462,-58.10521c0,-31.85291 32.68877,-80.48649 69.29585,-80.48649c36.60708,0 90.38589,24.96107 82.20812,81.77772z" fill="#f8e9d8" stroke="#000000" stroke-width="7" stroke-linecap="butt"/><path d="M180.52252,120.79972c0,0 -3.12386,15.09809 -16.56954,11.41695c-10.56177,-2.89159 -9.09871,-12.79569 -9.3602,-13.17074c-0.01359,-0.01948 -5.02232,17.90447 -23.98455,16.50186c-23.71338,-1.75405 -17.40871,-19.02122 -17.21025,-19.36416c0.24696,-0.42676 -10.5966,9.18469 -19.36261,2.31919c-4.48284,-3.51094 -6.35283,-11.88086 -2.15632,-16.66997c7.44774,-8.49946 12.30381,-3.66817 18.49227,-7.01637c9.49867,-5.13915 -3.14493,-19.20326 12.40152,-25.66576c15.06897,-6.26402 18.75385,12.4531 18.90477,12.6118c0.12427,0.13067 17.30584,-21.13105 33.50435,-21.32483c20.97627,-0.25094 27.313,15.37113 26.59963,20.90112c-1.15793,8.97628 0.97008,-2.9871 7.70011,-3.54411c24.73037,-2.0468 22.24549,28.10911 22.24549,28.10911" fill="#ffffff" stroke="#000000" stroke-width="7.5" stroke-linecap="round"/><path d="M102.81742,153.94182c1.99218,2.98977 1.196,6.36491 -3.69539,9.20807c-2.43596,1.41592 -6.78413,1.55239 -7.81568,-0.13294c-1.99218,-3.25479 0.52665,-6.89497 2.90032,-8.41301c2.37367,-1.51805 7.51506,-2.30647 8.61075,-0.66212z" fill="#000000" stroke="#000000" stroke-width="0.5" stroke-linecap="butt"/><path d="M155.05568,169.02966c-2.25303,2.2342 -7.46192,2.66746 -10.56948,-2.16418c-2.0388,-3.16993 -2.85468,-4.64364 -1.1317,-6.74533c1.36874,-1.66959 6.26932,-0.94482 9.24437,1.36911c2.97505,2.31393 3.9898,6.02023 2.45681,7.5404z" fill="#000000" stroke="#000000" stroke-width="0.5" stroke-linecap="butt"/><path d="M133.96629,192.60105c0,0 0.59968,12.14755 -11.52808,11.83032c-10.90928,-0.28536 -12.33295,-13.41413 -12.58235,-13.01039c-0.11986,0.19403 -5.30723,7.71498 -9.40201,7.4759c-6.1026,-0.35631 -10.08378,-7.62095 -10.08378,-7.62095" fill="none" stroke="#000000" stroke-width="7" stroke-linecap="round"/><path d="M383.61356,260.09324c0,0 1.88395,35.28543 -9.14219,35.14419c-11.65723,-0.14932 -0.14715,-18.91457 -9.55739,-23.14116c-8.57454,-3.85125 -14.7748,-3.15256 -25.71913,-3.68611c-14.50314,-0.70704 -33.43579,-1.15039 -41.76917,1.09432c-3.65611,0.98483 -9.24385,0.05591 -13.0111,4.81757c-6.18494,7.81754 -0.14332,23.12566 -11.25476,22.18948c-7.88513,-0.66436 -4.77315,-11.89586 -7.26297,-18.54877c-2.42946,-6.49164 -13.26987,-5.96519 -16.76064,-6.22564c-9.73805,-0.72658 -15.86876,0.96805 -17.70748,7.99419c-2.15525,8.23565 -6.48097,19.85502 -10.06386,19.83401c-9.71259,-0.05697 -9.64787,-36.933 -9.64787,-36.933" fill="#f8e9d8" stroke="#000000" stroke-width="7.5" stroke-linecap="round"/><path d="M409.17376,238.98048c1.67381,13.53617 -9.82439,22.18673 -23.76627,16.71397c-7.10802,-2.79019 2.195,6.75091 -12.57489,14.23499c-4.80291,2.4337 -16.85518,6.25145 -24.23132,-9.77816c-3.8714,-8.41321 -1.84669,5.352 -22.01111,11.58191c-4.93982,1.52618 -14.57084,-0.6619 -19.87635,-11.06256c-5.54541,-10.87096 1.30304,19.62807 -23.47894,16.64062c-4.19193,-0.50534 -10.65022,-2.81565 -11.05471,-11.11361c-0.72413,-14.85467 -4.42018,11.44581 -27.96499,5.15983c-7.23441,-1.93144 -12.17607,-4.82795 -13.84414,-13.50651c-1.41711,-7.37287 -8.76454,13.57944 -29.35903,4.17968c-2.22237,-1.01434 -4.28609,-5.12108 -4.07567,-9.18574c0.24649,-4.76131 2.952,-9.74837 2.24843,-13.89518c-0.75059,-4.42391 -2.7714,-6.60505 -3.79709,-10.51009c-1.25331,-4.77166 1.4,-9.17916 5.13533,-7.38585c2.51976,1.20971 -8.69558,-7.97915 -8.69558,-14.82761c0,-6.28154 2.85882,-7.34345 5.3075,-11.58663c3.25663,-5.64324 -1.7606,-13.95272 4.7707,-19.63819c10.64168,-9.26353 38.42362,-43.20045 66.54936,-46.99434c16.87007,-2.27561 18.49885,9.2012 18.93592,16.06077c0.64693,10.15315 -0.77461,-13.88938 13.97859,-8.11501c17.87979,6.9981 9.56144,28.55217 16.22654,22.83452c7.03181,-6.03224 13.41467,-8.16724 21.11789,-8.16724c6.59479,0 17.24104,6.83666 16.80116,13.43862c-0.87396,13.11691 2.62268,-8.7468 15.25356,-0.74055c5.75387,3.64717 8.6341,8.1729 8.12895,17.79963c-0.44784,8.53465 9.09551,-6.82622 27.67709,7.85977c9.22813,7.29348 4.63137,23.38454 -6.35496,24.9671c-6.19896,0.89294 6.04967,1.54817 8.95403,25.03585z" fill="#ffffff" stroke="#000000" stroke-width="7.5" stroke-linecap="butt"/><path d="M268.89642,135.3208c-1.09307,19.59688 -15.73005,34.63525 -45.15562,35.19926c-22.58432,0.43288 -40.87392,-19.83474 -41.93739,-39.02089c-1.33197,-24.03017 27.19422,-41.23341 45.35675,-41.23341c2.54532,0 5.22939,0.30262 7.95878,0.90464c16.7466,3.69378 35.19936,18.65877 33.77748,44.15041z" fill="#fff396" stroke="none" stroke-width="0" stroke-linecap="butt"/><path d="M181.80341,119.02857c0,0 -1.67493,-8.3213 5.04904,-16.4764c7.60277,-9.22096 25.5015,-18.76411 52.30662,-6.69334c19.78648,8.91016 24.11411,36.47024 18.49594,49.52628c-10.6214,24.68302 -31.79649,26.62237 -39.27825,25.45498c-16.01129,-2.49826 -22.14188,-14.83943 -21.54367,-21.58101c1.28831,-14.51858 13.34222,-16.4592 19.18843,-15.26528c3.76173,0.76823 13.54679,6.55279 11.7272,15.42408c-0.91966,4.48376 -5.71758,2.99969 -5.71758,2.99969" fill="none" stroke="#000000" stroke-width="7.5" stroke-linecap="round"/><path d="M83.66056,82.19433c0,17.16208 -3.56179,38.79427 -35.26345,38.86773c-31.90413,0.07393 -37.2117,-21.70565 -37.2117,-38.86773c0,-17.16208 3.36031,-34.16756 35.45828,-34.1919c33.25829,-0.02523 37.01688,17.02982 37.01688,34.1919z" fill="#ffffff" stroke="#000000" stroke-width="7" stroke-linecap="butt"/><path d="M61.57979,83.10299c0,17.16208 1.11403,39.57357 -12.66367,37.69877c-13.00604,2.60666 -18.11879,-19.17291 -18.11879,-36.33499c0,-17.16208 -2.47899,-37.1796 16.36536,-36.72464c14.36018,0.3467 14.4171,18.19878 14.4171,35.36086z" fill="#ff5f5f" stroke="#000000" stroke-width="7" stroke-linecap="butt"/><path d="M37.29204,47.22312v-4.48099h16.36536v4.48099z" fill="#000000" stroke="#000000" stroke-width="2" stroke-linecap="butt"/><path d="M40.79891,124.95857v-4.09134h15.1964v4.09134z" fill="#000000" stroke="#000000" stroke-width="2" stroke-linecap="butt"/><path d="M44.30577,43.71626c0,0 1.36956,-51.34426 62.41158,-35.34129c109.9708,28.83031 119.36078,70.40991 119.36078,70.40991" fill="none" stroke="#000000" stroke-width="7" stroke-linecap="round"/></g></g></svg>