<svg version="1.1" xmlns="http://www.w3.org/2000/svg" xmlns:xlink="http://www.w3.org/1999/xlink" width="28.96186" height="39.60796" viewBox="0,0,28.96186,39.60796"><g transform="translate(-228.12771,-292.67054)"><g data-paper-data="{&quot;isPaintingLayer&quot;:true}" fill-rule="nonzero" stroke="none" stroke-width="0" stroke-linecap="butt" stroke-linejoin="miter" stroke-miterlimit="10" stroke-dasharray="" stroke-dashoffset="0" style="mix-blend-mode: normal"><path d="M257.08958,324.61908c0,1.86687 -5.95755,-10.40793 -6.6876,-8.76508c-0.76033,1.71101 3.67095,17.26536 1.85933,15.34404c-1.41887,-1.50478 -4.9816,-14.74446 -6.24309,-15.00283c-1.40981,-0.28874 0.1995,14.69801 -1.30153,13.61698c-1.31456,-0.94674 -1.4164,-16.34294 -2.81442,-16.34294c-1.70024,0 -1.60479,13.54005 -3.07013,14.85858c-1.5203,1.36799 -1.33347,-13.01844 -2.7175,-12.66932c-1.04165,0.26275 -2.29946,14.84864 -3.35769,16.42292c-1.4262,2.1217 0.68819,-13.53677 -0.16123,-15.87681c-0.67243,-1.85247 -4.468,9.92454 -4.468,8.41445c0,-8.52629 5.77694,-31.94853 13.77454,-31.94853c7.9976,0 15.18731,23.42224 15.18731,31.94853z" fill="#ff6666"/><path d="M250.17571,310.22067c0,0.98088 -3.28898,-5.46846 -3.69202,-4.60528c-0.41976,0.89898 2.02662,9.07144 1.02648,8.06195c-0.78332,-0.79063 -2.7502,-7.74693 -3.44662,-7.88268c-0.77831,-0.15171 0.11014,7.72252 -0.71853,7.15453c-0.72573,-0.49743 -0.78196,-8.58679 -1.55376,-8.58679c-0.93865,0 -0.88595,7.11411 -1.69492,7.80689c-0.83931,0.71876 -0.73617,-6.84005 -1.50025,-6.65662c-0.57506,0.13805 -1.26946,7.80166 -1.85368,8.62881c-0.78736,1.11477 0.37993,-7.11239 -0.08901,-8.34188c-0.37123,-0.97331 -2.46665,5.21448 -2.46665,4.42106c0,-4.47982 3.18928,-16.78616 7.60452,-16.78616c4.41523,0 8.38446,12.30634 8.38446,16.78616z" fill="#ffb466"/></g></g></svg>