<svg version="1.1" xmlns="http://www.w3.org/2000/svg" xmlns:xlink="http://www.w3.org/1999/xlink" width="36.90443" height="33.25389" viewBox="0,0,36.90443,33.25389"><g transform="translate(-222.62659,-259.33612)"><g data-paper-data="{&quot;isPaintingLayer&quot;:true}" fill="#ffef67" fill-rule="nonzero" stroke="none" stroke-width="0" stroke-linecap="butt" stroke-linejoin="miter" stroke-miterlimit="10" stroke-dasharray="" stroke-dashoffset="0" style="mix-blend-mode: normal"><path d="M259.53102,286.15934c0,1.56738 -7.59136,-8.73825 -8.52162,-7.35895c-0.96885,1.43652 4.67768,14.49558 2.36924,12.88249c-1.80799,-1.26338 -6.34777,-12.3791 -7.95521,-12.59602c-1.79644,-0.24242 0.25421,12.3401 -1.65846,11.43249c-1.67507,-0.79486 -1.80484,-13.72114 -3.58626,-13.72114c-2.16652,0 -2.04489,11.3679 -3.91209,12.47491c-1.93723,1.14853 -1.69917,-10.92997 -3.46276,-10.63686c-1.32731,0.2206 -2.93007,12.46656 -4.27851,13.78829c-1.81732,1.78133 0.87692,-11.36515 -0.20544,-13.32979c-0.85684,-1.55529 -5.69332,8.33241 -5.69332,7.06457c0,-7.15847 7.36123,-26.82322 17.55211,-26.82322c10.19088,0 19.35232,19.66475 19.35232,26.82322z"/></g></g></svg>