<svg version="1.1" xmlns="http://www.w3.org/2000/svg" xmlns:xlink="http://www.w3.org/1999/xlink" width="44.57274" height="43.92042" viewBox="0,0,44.57274,43.92042"><g transform="translate(-215.99629,-150.69083)"><g data-paper-data="{&quot;isPaintingLayer&quot;:true}" fill="#ffffff" fill-rule="nonzero" stroke-width="0" stroke-linecap="butt" stroke-linejoin="miter" stroke-miterlimit="10" stroke-dasharray="" stroke-dashoffset="0" style="mix-blend-mode: normal"><g><path d="M237.84887,165.91263c0,6.12449 -4.89186,11.08937 -10.92629,11.08937c-6.03442,0 -10.92629,-4.96488 -10.92629,-11.08937c0,-6.12449 4.89187,-11.08937 10.92629,-11.08937c6.03442,0 10.92629,4.96488 10.92629,11.08937z" stroke="none"/><path d="M250.02435,161.78021c0,6.12449 -4.89187,11.08937 -10.92629,11.08937c-6.03442,0 -10.92629,-4.96488 -10.92629,-11.08937c0,-6.12449 4.89186,-11.08937 10.92629,-11.08937c6.03442,0 10.92629,4.96488 10.92629,11.08937z" stroke="none"/><path d="M260.56903,173.62952c0,6.12449 -4.89187,11.08936 -10.92629,11.08936c-6.03442,0 -10.92629,-4.96487 -10.92629,-11.08936c0,-6.12449 4.89186,-11.08937 10.92629,-11.08937c6.03442,0 10.92629,4.96488 10.92629,11.08937z" stroke="none"/><path d="M252.52271,183.52189c0,6.12449 -4.89186,11.08936 -10.92629,11.08936c-6.03442,0 -10.92629,-4.96487 -10.92629,-11.08936c0,-6.12449 4.89186,-11.08937 10.92629,-11.08937c6.03442,0 10.92629,4.96488 10.92629,11.08937z" stroke="none"/><path d="M238.93172,176.12789c0,6.12449 -4.89186,11.08936 -10.92629,11.08936c-6.03442,0 -10.92629,-4.96487 -10.92629,-11.08936c0,-6.12449 4.89186,-11.08937 10.92629,-11.08937c6.03442,0 10.92629,4.96488 10.92629,11.08937z" stroke="#000000"/></g></g></g></svg>