<svg version="1.1" xmlns="http://www.w3.org/2000/svg" xmlns:xlink="http://www.w3.org/1999/xlink" width="278.37362" height="101.0808" viewBox="0,0,278.37362,101.0808"><g transform="translate(-112.90777,-130.321)"><g data-paper-data="{&quot;isPaintingLayer&quot;:true}" fill-rule="nonzero" stroke="#000000" stroke-width="2" stroke-linejoin="miter" stroke-miterlimit="10" stroke-dasharray="" stroke-dashoffset="0" style="mix-blend-mode: normal"><path d="M371.08344,230.38149v-98.79696h18.9634v98.79696z" fill="#c6b37b" stroke-linecap="butt"/><path d="M113.90778,229.88384v-98.32872h256.12293v98.32873z" fill="#c6b37b" stroke-linecap="butt"/><path d="M228.6412,141.40457v-9.83287h18.9634v9.83287z" fill="#c6b37b" stroke-linecap="butt"/><path d="M247.21993,141.48813v-9.83287h18.9634v9.83287z" fill="#c6b37b" stroke-linecap="butt"/><g fill="#c6b37b" stroke-linecap="butt"><path d="M114.0749,160.75263v-9.83287h18.9634v9.83287z"/><path d="M133.12185,160.83619v-9.83287h18.9634v9.83287z"/><path d="M152.16879,160.91976v-9.83287h18.9634v9.83287z"/><path d="M171.21579,161.00331v-9.83287h18.9634v9.83287z"/><path d="M190.24617,160.83619v-9.83287h18.9634v9.83287z"/><path d="M209.29314,160.91976v-9.83287h18.9634v9.83287z"/><path d="M228.87532,160.83619v-9.83287h18.9634v9.83287z"/><path d="M247.92228,160.91976v-9.83287h18.9634v9.83287z"/><path d="M266.96916,161.00332v-9.83287h18.9634v9.83287z"/><path d="M286.01617,161.08688v-9.83287h18.9634v9.83287z"/><path d="M305.04652,160.91976v-9.83287h18.9634v9.83287z"/><path d="M324.09353,161.00332v-9.83287h18.9634v9.83287z"/><path d="M343.1405,161.08689v-9.83287h18.9634v9.83287z"/><path d="M361.71924,161.17045v-9.83287h18.9634v9.83287z"/></g><g fill="#c6b37b" stroke-linecap="butt"><g><path d="M114.37601,141.15387v-9.83287h18.9634v9.83287z"/><path d="M133.42291,141.23744v-9.83287h18.9634v9.83287z"/><path d="M152.46992,141.321v-9.83287h18.9634v9.83287z"/><path d="M171.51689,141.40456v-9.83287h18.9634v9.83287z"/><path d="M190.54728,141.23744v-9.83287h18.9634v9.83287z"/><path d="M209.59424,141.321v-9.83287h18.9634v9.83287z"/><path d="M229.1764,141.23744v-9.83287h18.9634v9.83287z"/><path d="M248.22337,141.321v-9.83287h18.9634v9.83287z"/><path d="M267.27034,141.40457v-9.83287h18.9634v9.83287z"/><path d="M286.3173,141.48813v-9.83287h18.9634v9.83287z"/><path d="M305.34767,141.321v-9.83287h18.9634v9.83287z"/><path d="M324.39459,141.40457v-9.83287h18.9634v9.83287z"/><path d="M343.44162,141.48813v-9.83287h18.9634v9.83287z"/><path d="M362.02035,141.57169v-9.83287h18.9634v9.83287z"/></g><g><path d="M123.5901,151.0703v-9.83287h18.9634v9.83287z"/><path d="M142.637,151.15387v-9.83287h18.9634v9.83287z"/><path d="M161.68401,151.23744v-9.83287h18.9634v9.83287z"/><path d="M180.73098,151.321v-9.83287h18.9634v9.83287z"/><path d="M199.76137,151.15387v-9.83287h18.9634v9.83287z"/><path d="M218.80831,151.23744v-9.83287h18.9634v9.83287z"/><path d="M238.39049,151.15387v-9.83287h18.9634v9.83287z"/><path d="M257.43746,151.23744v-9.83287h18.9634v9.83287z"/><path d="M276.48438,151.321v-9.83287h18.9634v9.83287z"/><path d="M295.53137,151.40456v-9.83287h18.9634v9.83287z"/><path d="M314.56174,151.23744v-9.83287h18.9634v9.83287z"/><path d="M333.60873,151.321v-9.83287h18.9634v9.83287z"/><path d="M352.65571,151.40457v-9.83287h18.9634v9.83287z"/><path d="M371.23443,151.48813v-9.83287h18.9634v9.83287z"/></g></g><g fill="#c6b37b" stroke-linecap="butt"><g><path d="M113.99134,160.90318v-9.83287h18.9634v9.83287z"/><path d="M133.03823,160.98675v-9.83287h18.9634v9.83287z"/><path d="M152.08524,161.07031v-9.83287h18.9634v9.83287z"/><path d="M171.13221,161.15387v-9.83287h18.9634v9.83287z"/><path d="M190.16261,160.98675v-9.83287h18.9634v9.83287z"/><path d="M209.20957,161.07031v-9.83287h18.9634v9.83287z"/><path d="M228.79174,160.98675v-9.83287h18.9634v9.83287z"/><path d="M247.83871,161.07031v-9.83287h18.9634v9.83287z"/><path d="M266.88563,161.15388v-9.83287h18.9634v9.83287z"/><path d="M285.93262,161.23744v-9.83287h18.9634v9.83287z"/><path d="M304.96299,161.07031v-9.83287h18.9634v9.83287z"/><path d="M324.00991,161.15388v-9.83287h18.9634v9.83287z"/><path d="M343.05695,161.23744v-9.83287h18.9634v9.83287z"/><path d="M361.63568,161.321v-9.83287h18.9634v9.83287z"/></g><g><path d="M123.20543,170.81962v-9.83287h18.9634v9.83287z"/><path d="M142.25239,170.90318v-9.83287h18.9634v9.83287z"/><path d="M161.29935,170.98675v-9.83287h18.9634v9.83287z"/><path d="M180.34631,171.07031v-9.83287h18.9634v9.83287z"/><path d="M199.3767,170.90318v-9.83287h18.9634v9.83287z"/><path d="M218.42366,170.98675v-9.83287h18.9634v9.83287z"/><path d="M238.00583,170.90318v-9.83287h18.9634v9.83287z"/><path d="M257.05278,170.98675v-9.83287h18.9634v9.83287z"/><path d="M276.0997,171.07031v-9.83287h18.9634v9.83287z"/><path d="M295.14671,171.15387v-9.83287h18.9634v9.83287z"/><path d="M314.17708,170.98675v-9.83287h18.9634v9.83287z"/><path d="M333.22405,171.07031v-9.83287h18.9634v9.83287z"/><path d="M352.27104,171.15388v-9.83287h18.9634v9.83287z"/><path d="M370.84977,171.23744v-9.83287h18.9634v9.83287z"/></g></g><g fill="#c6b37b" stroke-linecap="butt"><g><path d="M114.45957,180.56893v-9.83287h18.9634v9.83287z"/><path d="M133.50653,180.65249v-9.83287h18.9634v9.83287z"/><path d="M152.55347,180.73606v-9.83287h18.9634v9.83287z"/><path d="M171.60046,180.81962v-9.83287h18.9634v9.83287z"/><path d="M190.63083,180.65249v-9.83287h18.9634v9.83287z"/><path d="M209.6778,180.73606v-9.83287h18.9634v9.83287z"/><path d="M229.25999,180.65249v-9.83287h18.9634v9.83287z"/><path d="M248.30695,180.73606v-9.83287h18.9634v9.83287z"/><path d="M267.35384,180.81962v-9.83287h18.9634v9.83287z"/><path d="M286.40083,180.90318v-9.83287h18.9634v9.83287z"/><path d="M305.4312,180.73606v-9.83287h18.9634v9.83287z"/><path d="M324.47821,180.81962v-9.83287h18.9634v9.83287z"/><path d="M343.52518,180.90319v-9.83287h18.9634v9.83287z"/><path d="M362.10391,180.98675v-9.83287h18.9634v9.83287z"/></g><g><path d="M123.67366,190.48536v-9.83287h18.9634v9.83287z"/><path d="M142.72055,190.56893v-9.83287h18.9634v9.83287z"/><path d="M161.76756,190.65249v-9.83287h18.9634v9.83287z"/><path d="M180.81455,190.73605v-9.83287h18.9634v9.83287z"/><path d="M199.84492,190.56893v-9.83287h18.9634v9.83287z"/><path d="M218.89189,190.65249v-9.83287h18.9634v9.83287z"/><path d="M238.47408,190.56893v-9.83287h18.9634v9.83287z"/><path d="M257.52101,190.65249v-9.83287h18.9634v9.83287z"/><path d="M276.56798,190.73606v-9.83287h18.9634v9.83287z"/><path d="M295.61494,190.81962v-9.83287h18.9634v9.83287z"/><path d="M314.64534,190.65249v-9.83287h18.9634v9.83287z"/><path d="M333.6923,190.73606v-9.83287h18.9634v9.83287z"/><path d="M352.73927,190.81962v-9.83287h18.9634v9.83287z"/><path d="M371.318,190.90318v-9.83287h18.9634v9.83287z"/></g></g><g fill="#c6b37b" stroke-linecap="butt"><g><path d="M114.0749,200.31824v-9.83287h18.9634v9.83287z"/><path d="M133.12185,200.4018v-9.83287h18.9634v9.83287z"/><path d="M152.16879,200.48537v-9.83287h18.9634v9.83287z"/><path d="M171.21579,200.56893v-9.83287h18.9634v9.83287z"/><path d="M190.24617,200.4018v-9.83287h18.9634v9.83287z"/><path d="M209.29314,200.48537v-9.83287h18.9634v9.83287z"/><path d="M228.87532,200.4018v-9.83287h18.9634v9.83287z"/><path d="M247.92228,200.48537v-9.83287h18.9634v9.83287z"/><path d="M266.96916,200.56893v-9.83287h18.9634v9.83287z"/><path d="M286.01617,200.65249v-9.83287h18.9634v9.83287z"/><path d="M305.04652,200.48537v-9.83287h18.9634v9.83287z"/><path d="M324.09353,200.56893v-9.83287h18.9634v9.83287z"/><path d="M343.1405,200.6525v-9.83287h18.9634v9.83287z"/><path d="M361.71924,200.73606v-9.83287h18.9634v9.83287z"/></g><g><path d="M123.28899,210.23467v-9.83287h18.9634v9.83287z"/><path d="M142.33594,210.31824v-9.83287h18.9634v9.83287z"/><path d="M161.38288,210.4018v-9.83287h18.9634v9.83287z"/><path d="M180.42987,210.48536v-9.83287h18.9634v9.83287z"/><path d="M199.46026,210.31824v-9.83287h18.9634v9.83287z"/><path d="M218.50723,210.4018v-9.83287h18.9634v9.83287z"/><path d="M238.08941,210.31824v-9.83287h18.9634v9.83287z"/><path d="M257.13633,210.4018v-9.83287h18.9634v9.83287z"/><path d="M276.18327,210.48537v-9.83287h18.9634v9.83287z"/><path d="M295.23026,210.56893v-9.83287h18.9634v9.83287z"/><path d="M314.26063,210.4018v-9.83287h18.9634v9.83287z"/><path d="M333.30762,210.48537v-9.83287h18.9634v9.83287z"/><path d="M352.35459,210.56893v-9.83287h18.9634v9.83287z"/><path d="M370.93333,210.65249v-9.83287h18.9634v9.83287z"/></g></g><g fill="#c6b37b" stroke-linecap="butt"><g><path d="M114.15847,220.06755v-9.83287h18.9634v9.83287z"/><path d="M133.20542,220.15111v-9.83287h18.9634v9.83287z"/><path d="M152.25239,220.23468v-9.83287h18.9634v9.83287z"/><path d="M171.29935,220.31824v-9.83287h18.9634v9.83287z"/><path d="M190.32974,220.15111v-9.83287h18.9634v9.83287z"/><path d="M209.3767,220.23468v-9.83287h18.9634v9.83287z"/><path d="M228.95887,220.15111v-9.83287h18.9634v9.83287z"/><path d="M248.00584,220.23468v-9.83287h18.9634v9.83287z"/><path d="M267.05278,220.31824v-9.83287h18.9634v9.83287z"/><path d="M286.0997,220.4018v-9.83287h18.9634v9.83287z"/><path d="M305.13016,220.23468v-9.83287h18.9634v9.83287z"/><path d="M324.17708,220.31824v-9.83287h18.9634v9.83287z"/><path d="M343.22408,220.40181v-9.83287h18.9634v9.83287z"/><path d="M361.80281,220.48537v-9.83287h18.9634v9.83287z"/></g><g><path d="M123.37256,229.98398v-9.83287h18.9634v9.83287z"/><path d="M142.41951,230.06755v-9.83287h18.9634v9.83287z"/><path d="M161.46643,230.15111v-9.83287h18.9634v9.83287z"/><path d="M180.51344,230.23467v-9.83287h18.9634v9.83287z"/><path d="M199.54383,230.06755v-9.83287h18.9634v9.83287z"/><path d="M218.59079,230.15111v-9.83287h18.9634v9.83287z"/><path d="M238.17296,230.06755v-9.83287h18.9634v9.83287z"/><path d="M257.21988,230.15111v-9.83287h18.9634v9.83287z"/><path d="M276.26689,230.23468v-9.83287h18.9634v9.83287z"/><path d="M295.31381,230.31824v-9.83287h18.9634v9.83287z"/><path d="M314.34425,230.15111v-9.83287h18.9634v9.83287z"/><path d="M333.39117,230.23468v-9.83287h18.9634v9.83287z"/><path d="M352.43817,230.31824v-9.83287h18.9634v9.83287z"/><path d="M371.0169,230.4018v-9.83287h18.9634v9.83287z"/></g></g><g stroke-linecap="butt"><path d="M114.12978,151.04466v-19.72366h19.43809v19.72366z" fill="#c6b37b"/><path d="M117.50347,147.62762v-12.93476h12.74749v12.93476z" fill="#a37e27"/></g><g stroke-linecap="butt"><path d="M113.97923,230.02532v-19.72365h19.43809v19.72365z" fill="#c6b37b"/><path d="M117.35292,226.60829v-12.93476h12.74749v12.93476z" fill="#a37e27"/></g><g stroke-linecap="butt"><path d="M370.48834,151.4459v-19.72366h19.43809v19.72366z" fill="#c6b37b"/><path d="M373.86204,148.02887v-12.93476h12.74749v12.93476z" fill="#a37e27"/></g><g stroke-linecap="butt"><path d="M370.76529,230.19245v-19.72365h19.43809v19.72365z" fill="#c6b37b"/><path d="M374.13897,226.77541v-12.93476h12.74749v12.93476z" fill="#a37e27"/></g><g><path d="M282.61609,180.71408c0,16.29164 -13.46902,29.49862 -30.08391,29.49862c-16.61488,0 -30.08391,-13.20698 -30.08391,-29.49861c0,-16.29164 13.46902,-29.49862 30.08391,-29.49862c16.61488,0 30.08391,13.20699 30.08391,29.49862z" fill="#c6b37b" stroke-linecap="butt"/><path d="M282.65085,180.34979l-60.23735,0.72858" fill="none" stroke-linecap="round"/><path d="M252.74517,209.7342l-0.34978,-57.49014" fill="none" stroke-linecap="round"/><path d="M238.11167,206.63221l28.70395,-51.5612" fill="none" stroke-linecap="round"/><path d="M226.74244,195.22361l51.35318,-28.88153" fill="none" stroke-linecap="round"/><path d="M279.26872,193.89693l-53.47309,-26.36569" fill="none" stroke-linecap="round"/><path d="M237.19377,156.34573l30.86895,49.02149" fill="none" stroke-linecap="round"/><path d="M278.28495,180.71408c0,14.06467 -11.5299,25.46634 -25.75276,25.46634c-14.22286,0 -25.75277,-11.40167 -25.75277,-25.46634c0,-14.06467 11.52991,-25.46634 25.75277,-25.46634c14.22286,0 25.75276,11.40167 25.75276,25.46634z" fill="#c6b37b" stroke-linecap="butt"/></g></g></g></svg>