<svg version="1.1" xmlns="http://www.w3.org/2000/svg" xmlns:xlink="http://www.w3.org/1999/xlink" width="278.37362" height="101.0808" viewBox="0,0,278.37362,101.0808"><g transform="translate(-100.81319,-129.4596)"><g data-paper-data="{&quot;isPaintingLayer&quot;:true}" fill-rule="nonzero" stroke="#000000" stroke-width="2" stroke-linejoin="miter" stroke-miterlimit="10" stroke-dasharray="" stroke-dashoffset="0" style="mix-blend-mode: normal"><path d="M358.98885,229.52009v-98.79696h18.9634v98.79696z" fill="#c6b37b" stroke-linecap="butt"/><path d="M101.81319,229.02244v-98.32872h256.12293v98.32873z" fill="#c6b37b" stroke-linecap="butt"/><path d="M216.54661,140.54317v-9.83287h18.9634v9.83287z" fill="#c6b37b" stroke-linecap="butt"/><path d="M235.12534,140.62673v-9.83287h18.9634v9.83287z" fill="#c6b37b" stroke-linecap="butt"/><g fill="#c6b37b" stroke-linecap="butt"><path d="M101.98031,159.89123v-9.83287h18.9634v9.83287z"/><path d="M121.02726,159.97479v-9.83287h18.9634v9.83287z"/><path d="M140.0742,160.05836v-9.83287h18.9634v9.83287z"/><path d="M159.1212,160.14191v-9.83287h18.9634v9.83287z"/><path d="M178.15158,159.97479v-9.83287h18.9634v9.83287z"/><path d="M197.19855,160.05836v-9.83287h18.9634v9.83287z"/><path d="M216.78073,159.97479v-9.83287h18.9634v9.83287z"/><path d="M235.82769,160.05836v-9.83287h18.9634v9.83287z"/><path d="M254.87457,160.14192v-9.83287h18.9634v9.83287z"/><path d="M273.92158,160.22548v-9.83287h18.9634v9.83287z"/><path d="M292.95193,160.05836v-9.83287h18.9634v9.83287z"/><path d="M311.99894,160.14192v-9.83287h18.9634v9.83287z"/><path d="M331.04591,160.22549v-9.83287h18.9634v9.83287z"/><path d="M349.62465,160.30905v-9.83287h18.9634v9.83287z"/></g><g fill="#c6b37b" stroke-linecap="butt"><g><path d="M102.28142,140.29247v-9.83287h18.9634v9.83287z"/><path d="M121.32832,140.37604v-9.83287h18.9634v9.83287z"/><path d="M140.37533,140.4596v-9.83287h18.9634v9.83287z"/><path d="M159.4223,140.54316v-9.83287h18.9634v9.83287z"/><path d="M178.45269,140.37604v-9.83287h18.9634v9.83287z"/><path d="M197.49965,140.4596v-9.83287h18.9634v9.83287z"/><path d="M217.08181,140.37604v-9.83287h18.9634v9.83287z"/><path d="M236.12878,140.4596v-9.83287h18.9634v9.83287z"/><path d="M255.17575,140.54317v-9.83287h18.9634v9.83287z"/><path d="M274.22271,140.62673v-9.83287h18.9634v9.83287z"/><path d="M293.25308,140.4596v-9.83287h18.9634v9.83287z"/><path d="M312.3,140.54317v-9.83287h18.9634v9.83287z"/><path d="M331.34703,140.62673v-9.83287h18.9634v9.83287z"/><path d="M349.92576,140.71029v-9.83287h18.9634v9.83287z"/></g><g><path d="M111.49551,150.2089v-9.83287h18.9634v9.83287z"/><path d="M130.54241,150.29247v-9.83287h18.9634v9.83287z"/><path d="M149.58942,150.37604v-9.83287h18.9634v9.83287z"/><path d="M168.63639,150.4596v-9.83287h18.9634v9.83287z"/><path d="M187.66678,150.29247v-9.83287h18.9634v9.83287z"/><path d="M206.71372,150.37604v-9.83287h18.9634v9.83287z"/><path d="M226.2959,150.29247v-9.83287h18.9634v9.83287z"/><path d="M245.34287,150.37604v-9.83287h18.9634v9.83287z"/><path d="M264.38979,150.4596v-9.83287h18.9634v9.83287z"/><path d="M283.43678,150.54316v-9.83287h18.9634v9.83287z"/><path d="M302.46715,150.37604v-9.83287h18.9634v9.83287z"/><path d="M321.51414,150.4596v-9.83287h18.9634v9.83287z"/><path d="M340.56112,150.54317v-9.83287h18.9634v9.83287z"/><path d="M359.13984,150.62673v-9.83287h18.9634v9.83287z"/></g></g><g fill="#c6b37b" stroke-linecap="butt"><g><path d="M101.89675,160.04178v-9.83287h18.9634v9.83287z"/><path d="M120.94364,160.12535v-9.83287h18.9634v9.83287z"/><path d="M139.99065,160.20891v-9.83287h18.9634v9.83287z"/><path d="M159.03762,160.29247v-9.83287h18.9634v9.83287z"/><path d="M178.06802,160.12535v-9.83287h18.9634v9.83287z"/><path d="M197.11498,160.20891v-9.83287h18.9634v9.83287z"/><path d="M216.69715,160.12535v-9.83287h18.9634v9.83287z"/><path d="M235.74412,160.20891v-9.83287h18.9634v9.83287z"/><path d="M254.79104,160.29248v-9.83287h18.9634v9.83287z"/><path d="M273.83803,160.37604v-9.83287h18.9634v9.83287z"/><path d="M292.8684,160.20891v-9.83287h18.9634v9.83287z"/><path d="M311.91532,160.29248v-9.83287h18.9634v9.83287z"/><path d="M330.96236,160.37604v-9.83287h18.9634v9.83287z"/><path d="M349.54109,160.4596v-9.83287h18.9634v9.83287z"/></g><g><path d="M111.11084,169.95822v-9.83287h18.9634v9.83287z"/><path d="M130.1578,170.04178v-9.83287h18.9634v9.83287z"/><path d="M149.20476,170.12535v-9.83287h18.9634v9.83287z"/><path d="M168.25172,170.20891v-9.83287h18.9634v9.83287z"/><path d="M187.28211,170.04178v-9.83287h18.9634v9.83287z"/><path d="M206.32907,170.12535v-9.83287h18.9634v9.83287z"/><path d="M225.91124,170.04178v-9.83287h18.9634v9.83287z"/><path d="M244.95819,170.12535v-9.83287h18.9634v9.83287z"/><path d="M264.00511,170.20891v-9.83287h18.9634v9.83287z"/><path d="M283.05212,170.29247v-9.83287h18.9634v9.83287z"/><path d="M302.08249,170.12535v-9.83287h18.9634v9.83287z"/><path d="M321.12946,170.20891v-9.83287h18.9634v9.83287z"/><path d="M340.17645,170.29248v-9.83287h18.9634v9.83287z"/><path d="M358.75518,170.37604v-9.83287h18.9634v9.83287z"/></g></g><g fill="#c6b37b" stroke-linecap="butt"><g><path d="M102.36498,179.70753v-9.83287h18.9634v9.83287z"/><path d="M121.41194,179.79109v-9.83287h18.9634v9.83287z"/><path d="M140.45888,179.87466v-9.83287h18.9634v9.83287z"/><path d="M159.50587,179.95822v-9.83287h18.9634v9.83287z"/><path d="M178.53624,179.79109v-9.83287h18.9634v9.83287z"/><path d="M197.58321,179.87466v-9.83287h18.9634v9.83287z"/><path d="M217.1654,179.79109v-9.83287h18.9634v9.83287z"/><path d="M236.21236,179.87466v-9.83287h18.9634v9.83287z"/><path d="M255.25925,179.95822v-9.83287h18.9634v9.83287z"/><path d="M274.30624,180.04178v-9.83287h18.9634v9.83287z"/><path d="M293.33661,179.87466v-9.83287h18.9634v9.83287z"/><path d="M312.38362,179.95822v-9.83287h18.9634v9.83287z"/><path d="M331.43059,180.04179v-9.83287h18.9634v9.83287z"/><path d="M350.00932,180.12535v-9.83287h18.9634v9.83287z"/></g><g><path d="M111.57907,189.62396v-9.83287h18.9634v9.83287z"/><path d="M130.62596,189.70753v-9.83287h18.9634v9.83287z"/><path d="M149.67297,189.79109v-9.83287h18.9634v9.83287z"/><path d="M168.71996,189.87465v-9.83287h18.9634v9.83287z"/><path d="M187.75033,189.70753v-9.83287h18.9634v9.83287z"/><path d="M206.7973,189.79109v-9.83287h18.9634v9.83287z"/><path d="M226.37949,189.70753v-9.83287h18.9634v9.83287z"/><path d="M245.42642,189.79109v-9.83287h18.9634v9.83287z"/><path d="M264.47339,189.87466v-9.83287h18.9634v9.83287z"/><path d="M283.52035,189.95822v-9.83287h18.9634v9.83287z"/><path d="M302.55075,189.79109v-9.83287h18.9634v9.83287z"/><path d="M321.59771,189.87466v-9.83287h18.9634v9.83287z"/><path d="M340.64468,189.95822v-9.83287h18.9634v9.83287z"/><path d="M359.22341,190.04178v-9.83287h18.9634v9.83287z"/></g></g><g fill="#c6b37b" stroke-linecap="butt"><g><path d="M101.98031,199.45684v-9.83287h18.9634v9.83287z"/><path d="M121.02726,199.5404v-9.83287h18.9634v9.83287z"/><path d="M140.0742,199.62397v-9.83287h18.9634v9.83287z"/><path d="M159.1212,199.70753v-9.83287h18.9634v9.83287z"/><path d="M178.15158,199.5404v-9.83287h18.9634v9.83287z"/><path d="M197.19855,199.62397v-9.83287h18.9634v9.83287z"/><path d="M216.78073,199.5404v-9.83287h18.9634v9.83287z"/><path d="M235.82769,199.62397v-9.83287h18.9634v9.83287z"/><path d="M254.87457,199.70753v-9.83287h18.9634v9.83287z"/><path d="M273.92158,199.79109v-9.83287h18.9634v9.83287z"/><path d="M292.95193,199.62397v-9.83287h18.9634v9.83287z"/><path d="M311.99894,199.70753v-9.83287h18.9634v9.83287z"/><path d="M331.04591,199.7911v-9.83287h18.9634v9.83287z"/><path d="M349.62465,199.87466v-9.83287h18.9634v9.83287z"/></g><g><path d="M111.1944,209.37327v-9.83287h18.9634v9.83287z"/><path d="M130.24135,209.45684v-9.83287h18.9634v9.83287z"/><path d="M149.28829,209.5404v-9.83287h18.9634v9.83287z"/><path d="M168.33528,209.62396v-9.83287h18.9634v9.83287z"/><path d="M187.36567,209.45684v-9.83287h18.9634v9.83287z"/><path d="M206.41264,209.5404v-9.83287h18.9634v9.83287z"/><path d="M225.99482,209.45684v-9.83287h18.9634v9.83287z"/><path d="M245.04174,209.5404v-9.83287h18.9634v9.83287z"/><path d="M264.08868,209.62397v-9.83287h18.9634v9.83287z"/><path d="M283.13567,209.70753v-9.83287h18.9634v9.83287z"/><path d="M302.16604,209.5404v-9.83287h18.9634v9.83287z"/><path d="M321.21303,209.62397v-9.83287h18.9634v9.83287z"/><path d="M340.26,209.70753v-9.83287h18.9634v9.83287z"/><path d="M358.83874,209.79109v-9.83287h18.9634v9.83287z"/></g></g><g fill="#c6b37b" stroke-linecap="butt"><g><path d="M102.06388,219.20615v-9.83287h18.9634v9.83287z"/><path d="M121.11083,219.28971v-9.83287h18.9634v9.83287z"/><path d="M140.1578,219.37328v-9.83287h18.9634v9.83287z"/><path d="M159.20476,219.45684v-9.83287h18.9634v9.83287z"/><path d="M178.23515,219.28971v-9.83287h18.9634v9.83287z"/><path d="M197.28211,219.37328v-9.83287h18.9634v9.83287z"/><path d="M216.86428,219.28971v-9.83287h18.9634v9.83287z"/><path d="M235.91125,219.37328v-9.83287h18.9634v9.83287z"/><path d="M254.95819,219.45684v-9.83287h18.9634v9.83287z"/><path d="M274.00511,219.5404v-9.83287h18.9634v9.83287z"/><path d="M293.03557,219.37328v-9.83287h18.9634v9.83287z"/><path d="M312.08249,219.45684v-9.83287h18.9634v9.83287z"/><path d="M331.12949,219.54041v-9.83287h18.9634v9.83287z"/><path d="M349.70822,219.62397v-9.83287h18.9634v9.83287z"/></g><g><path d="M111.27797,229.12258v-9.83287h18.9634v9.83287z"/><path d="M130.32492,229.20615v-9.83287h18.9634v9.83287z"/><path d="M149.37184,229.28971v-9.83287h18.9634v9.83287z"/><path d="M168.41885,229.37327v-9.83287h18.9634v9.83287z"/><path d="M187.44924,229.20615v-9.83287h18.9634v9.83287z"/><path d="M206.4962,229.28971v-9.83287h18.9634v9.83287z"/><path d="M226.07837,229.20615v-9.83287h18.9634v9.83287z"/><path d="M245.12529,229.28971v-9.83287h18.9634v9.83287z"/><path d="M264.1723,229.37328v-9.83287h18.9634v9.83287z"/><path d="M283.21922,229.45684v-9.83287h18.9634v9.83287z"/><path d="M302.24966,229.28971v-9.83287h18.9634v9.83287z"/><path d="M321.29658,229.37328v-9.83287h18.9634v9.83287z"/><path d="M340.34358,229.45684v-9.83287h18.9634v9.83287z"/><path d="M358.92231,229.5404v-9.83287h18.9634v9.83287z"/></g></g><g stroke-linecap="butt"><path d="M102.03519,150.18326v-19.72366h19.43809v19.72366z" fill="#c6b37b"/><path d="M105.40888,146.76622v-12.93476h12.74749v12.93476z" fill="#a37e27"/></g><g stroke-linecap="butt"><path d="M101.88464,229.16392v-19.72365h19.43809v19.72365z" fill="#c6b37b"/><path d="M105.25833,225.74689v-12.93476h12.74749v12.93476z" fill="#a37e27"/></g><g stroke-linecap="butt"><path d="M358.39375,150.5845v-19.72366h19.43809v19.72366z" fill="#c6b37b"/><path d="M361.76745,147.16747v-12.93476h12.74749v12.93476z" fill="#a37e27"/></g><g stroke-linecap="butt"><path d="M358.6707,229.33105v-19.72365h19.43809v19.72365z" fill="#c6b37b"/><path d="M362.04438,225.91401v-12.93476h12.74749v12.93476z" fill="#a37e27"/></g><g><path d="M206.85136,180.49581c0,16.29164 -13.46902,29.49862 -30.08391,29.49862c-16.61488,0 -30.08391,-13.20698 -30.08391,-29.49861c0,-16.29164 13.46902,-29.49862 30.08391,-29.49862c16.61488,0 30.08391,13.20699 30.08391,29.49862z" fill="#c6b37b" stroke-linecap="butt"/><path d="M206.88612,180.13152l-60.23735,0.72858" fill="none" stroke-linecap="round"/><path d="M176.63066,152.02579l0.34978,57.49014" fill="none" stroke-linecap="round"/><path d="M162.34694,206.41394l28.70395,-51.5612" fill="none" stroke-linecap="round"/><path d="M150.97771,195.00534l51.35318,-28.88153" fill="none" stroke-linecap="round"/><path d="M150.0309,167.31297l53.47309,26.36569" fill="none" stroke-linecap="round"/><path d="M161.42904,156.12746l30.86895,49.02149" fill="none" stroke-linecap="round"/><path d="M202.52022,180.49581c0,14.06467 -11.5299,25.46634 -25.75276,25.46634c-14.22286,0 -25.75277,-11.40167 -25.75277,-25.46634c0,-14.06467 11.52991,-25.46634 25.75277,-25.46634c14.22286,0 25.75276,11.40167 25.75276,25.46634z" fill="#c6b37b" stroke-linecap="butt"/></g><g><path d="M335.04032,180c0,16.29164 -13.46902,29.49862 -30.08391,29.49862c-16.61488,0 -30.08391,-13.20698 -30.08391,-29.49861c0,-16.29164 13.46902,-29.49862 30.08391,-29.49862c16.61488,0 30.08391,13.20699 30.08391,29.49862z" fill="#c6b37b" stroke-linecap="butt"/><path d="M335.07509,179.63571l-60.23735,0.72858" fill="none" stroke-linecap="round"/><path d="M304.81962,151.52998l0.34978,57.49014" fill="none" stroke-linecap="round"/><path d="M319.23985,154.35693l-28.70395,51.5612" fill="none" stroke-linecap="round"/><path d="M279.16667,194.50953l51.35318,-28.88153" fill="none" stroke-linecap="round"/><path d="M278.21986,166.81716l53.47309,26.36569" fill="none" stroke-linecap="round"/><path d="M289.618,155.63165l30.86895,49.02149" fill="none" stroke-linecap="round"/><path d="M330.70918,180c0,14.06467 -11.5299,25.46634 -25.75276,25.46634c-14.22286,0 -25.75277,-11.40167 -25.75277,-25.46634c0,-14.06467 11.52991,-25.46634 25.75277,-25.46634c14.22286,0 25.75276,11.40167 25.75276,25.46634z" fill="#c6b37b" stroke-linecap="butt"/></g></g></g></svg>