<svg version="1.1" xmlns="http://www.w3.org/2000/svg" xmlns:xlink="http://www.w3.org/1999/xlink" width="557.34818" height="101.57888" viewBox="0,0,557.34818,101.57888"><g transform="translate(38.10349,-129.4596)"><g data-paper-data="{&quot;isPaintingLayer&quot;:true}" fill-rule="nonzero" stroke="#000000" stroke-width="2" stroke-linejoin="miter" stroke-miterlimit="10" stroke-dasharray="" stroke-dashoffset="0" style="mix-blend-mode: normal"><path d="M220.07218,229.52009v-98.79696h18.9634v98.79696z" fill="#c6b37b" stroke-linecap="butt"/><path d="M-37.10348,229.02244v-98.32872h256.12293v98.32873z" fill="#c6b37b" stroke-linecap="butt"/><path d="M77.62994,140.54317v-9.83287h18.9634v9.83287z" fill="#c6b37b" stroke-linecap="butt"/><path d="M96.20867,140.62673v-9.83287h18.9634v9.83287z" fill="#c6b37b" stroke-linecap="butt"/><g fill="#c6b37b" stroke-linecap="butt"><path d="M-36.93636,159.89123v-9.83287h18.9634v9.83287z"/><path d="M-17.88941,159.97479v-9.83287h18.9634v9.83287z"/><path d="M1.15752,160.05836v-9.83287h18.9634v9.83287z"/><path d="M20.20453,160.14191v-9.83287h18.9634v9.83287z"/><path d="M39.23491,159.97479v-9.83287h18.9634v9.83287z"/><path d="M58.28188,160.05836v-9.83287h18.9634v9.83287z"/><path d="M77.86405,159.97479v-9.83287h18.9634v9.83287z"/><path d="M96.91102,160.05836v-9.83287h18.9634v9.83287z"/><path d="M115.9579,160.14192v-9.83287h18.9634v9.83287z"/><path d="M135.00491,160.22548v-9.83287h18.9634v9.83287z"/><path d="M154.03526,160.05836v-9.83287h18.9634v9.83287z"/><path d="M173.08227,160.14192v-9.83287h18.9634v9.83287z"/><path d="M192.12924,160.22549v-9.83287h18.9634v9.83287z"/><path d="M210.70798,160.30905v-9.83287h18.9634v9.83287z"/></g><g fill="#c6b37b" stroke-linecap="butt"><g><path d="M-36.63525,140.29247v-9.83287h18.9634v9.83287z"/><path d="M-17.58835,140.37604v-9.83287h18.9634v9.83287z"/><path d="M1.45866,140.4596v-9.83287h18.9634v9.83287z"/><path d="M20.50562,140.54316v-9.83287h18.9634v9.83287z"/><path d="M39.53602,140.37604v-9.83287h18.9634v9.83287z"/><path d="M58.58298,140.4596v-9.83287h18.9634v9.83287z"/><path d="M78.16514,140.37604v-9.83287h18.9634v9.83287z"/><path d="M97.21211,140.4596v-9.83287h18.9634v9.83287z"/><path d="M116.25908,140.54317v-9.83287h18.9634v9.83287z"/><path d="M135.30604,140.62673v-9.83287h18.9634v9.83287z"/><path d="M154.33641,140.4596v-9.83287h18.9634v9.83287z"/><path d="M173.38333,140.54317v-9.83287h18.9634v9.83287z"/><path d="M192.43036,140.62673v-9.83287h18.9634v9.83287z"/><path d="M211.00909,140.71029v-9.83287h18.9634v9.83287z"/></g><g><path d="M-27.42116,150.2089v-9.83287h18.9634v9.83287z"/><path d="M-8.37426,150.29247v-9.83287h18.9634v9.83287z"/><path d="M10.67275,150.37604v-9.83287h18.9634v9.83287z"/><path d="M29.71972,150.4596v-9.83287h18.9634v9.83287z"/><path d="M48.75011,150.29247v-9.83287h18.9634v9.83287z"/><path d="M67.79705,150.37604v-9.83287h18.9634v9.83287z"/><path d="M87.37923,150.29247v-9.83287h18.9634v9.83287z"/><path d="M106.4262,150.37604v-9.83287h18.9634v9.83287z"/><path d="M125.47312,150.4596v-9.83287h18.9634v9.83287z"/><path d="M144.52011,150.54316v-9.83287h18.9634v9.83287z"/><path d="M163.55048,150.37604v-9.83287h18.9634v9.83287z"/><path d="M182.59747,150.4596v-9.83287h18.9634v9.83287z"/><path d="M201.64445,150.54317v-9.83287h18.9634v9.83287z"/><path d="M220.22317,150.62673v-9.83287h18.9634v9.83287z"/></g></g><g fill="#c6b37b" stroke-linecap="butt"><g><path d="M-37.01992,160.04178v-9.83287h18.9634v9.83287z"/><path d="M-17.97303,160.12535v-9.83287h18.9634v9.83287z"/><path d="M1.07397,160.20891v-9.83287h18.9634v9.83287z"/><path d="M20.12095,160.29247v-9.83287h18.9634v9.83287z"/><path d="M39.15135,160.12535v-9.83287h18.9634v9.83287z"/><path d="M58.19831,160.20891v-9.83287h18.9634v9.83287z"/><path d="M77.78048,160.12535v-9.83287h18.9634v9.83287z"/><path d="M96.82745,160.20891v-9.83287h18.9634v9.83287z"/><path d="M115.87437,160.29248v-9.83287h18.9634v9.83287z"/><path d="M134.92136,160.37604v-9.83287h18.9634v9.83287z"/><path d="M153.95173,160.20891v-9.83287h18.9634v9.83287z"/><path d="M172.99865,160.29248v-9.83287h18.9634v9.83287z"/><path d="M192.04569,160.37604v-9.83287h18.9634v9.83287z"/><path d="M210.62442,160.4596v-9.83287h18.9634v9.83287z"/></g><g><path d="M-27.80583,169.95822v-9.83287h18.9634v9.83287z"/><path d="M-8.75887,170.04178v-9.83287h18.9634v9.83287z"/><path d="M10.28809,170.12535v-9.83287h18.9634v9.83287z"/><path d="M29.33505,170.20891v-9.83287h18.9634v9.83287z"/><path d="M48.36544,170.04178v-9.83287h18.9634v9.83287z"/><path d="M67.4124,170.12535v-9.83287h18.9634v9.83287z"/><path d="M86.99457,170.04178v-9.83287h18.9634v9.83287z"/><path d="M106.04152,170.12535v-9.83287h18.9634v9.83287z"/><path d="M125.08844,170.20891v-9.83287h18.9634v9.83287z"/><path d="M144.13545,170.29247v-9.83287h18.9634v9.83287z"/><path d="M163.16582,170.12535v-9.83287h18.9634v9.83287z"/><path d="M182.21279,170.20891v-9.83287h18.9634v9.83287z"/><path d="M201.25978,170.29248v-9.83287h18.9634v9.83287z"/><path d="M219.83851,170.37604v-9.83287h18.9634v9.83287z"/></g></g><g fill="#c6b37b" stroke-linecap="butt"><g><path d="M-36.55169,179.70753v-9.83287h18.9634v9.83287z"/><path d="M-17.50473,179.79109v-9.83287h18.9634v9.83287z"/><path d="M1.54221,179.87466v-9.83287h18.9634v9.83287z"/><path d="M20.5892,179.95822v-9.83287h18.9634v9.83287z"/><path d="M39.61957,179.79109v-9.83287h18.9634v9.83287z"/><path d="M58.66654,179.87466v-9.83287h18.9634v9.83287z"/><path d="M78.24872,179.79109v-9.83287h18.9634v9.83287z"/><path d="M97.29569,179.87466v-9.83287h18.9634v9.83287z"/><path d="M116.34258,179.95822v-9.83287h18.9634v9.83287z"/><path d="M135.38957,180.04178v-9.83287h18.9634v9.83287z"/><path d="M154.41994,179.87466v-9.83287h18.9634v9.83287z"/><path d="M173.46695,179.95822v-9.83287h18.9634v9.83287z"/><path d="M192.51392,180.04179v-9.83287h18.9634v9.83287z"/><path d="M211.09265,180.12535v-9.83287h18.9634v9.83287z"/></g><g><path d="M-27.3376,189.62396v-9.83287h18.9634v9.83287z"/><path d="M-8.29071,189.70753v-9.83287h18.9634v9.83287z"/><path d="M10.7563,189.79109v-9.83287h18.9634v9.83287z"/><path d="M29.80329,189.87465v-9.83287h18.9634v9.83287z"/><path d="M48.83366,189.70753v-9.83287h18.9634v9.83287z"/><path d="M67.88062,189.79109v-9.83287h18.9634v9.83287z"/><path d="M87.46282,189.70753v-9.83287h18.9634v9.83287z"/><path d="M106.50975,189.79109v-9.83287h18.9634v9.83287z"/><path d="M125.55672,189.87466v-9.83287h18.9634v9.83287z"/><path d="M144.60368,189.95822v-9.83287h18.9634v9.83287z"/><path d="M163.63408,189.79109v-9.83287h18.9634v9.83287z"/><path d="M182.68104,189.87466v-9.83287h18.9634v9.83287z"/><path d="M201.72801,189.95822v-9.83287h18.9634v9.83287z"/><path d="M220.30674,190.04178v-9.83287h18.9634v9.83287z"/></g></g><g fill="#c6b37b" stroke-linecap="butt"><g><path d="M-36.93636,199.45684v-9.83287h18.9634v9.83287z"/><path d="M-17.88941,199.5404v-9.83287h18.9634v9.83287z"/><path d="M1.15752,199.62397v-9.83287h18.9634v9.83287z"/><path d="M20.20453,199.70753v-9.83287h18.9634v9.83287z"/><path d="M39.23491,199.5404v-9.83287h18.9634v9.83287z"/><path d="M58.28188,199.62397v-9.83287h18.9634v9.83287z"/><path d="M77.86405,199.5404v-9.83287h18.9634v9.83287z"/><path d="M96.91102,199.62397v-9.83287h18.9634v9.83287z"/><path d="M115.9579,199.70753v-9.83287h18.9634v9.83287z"/><path d="M135.00491,199.79109v-9.83287h18.9634v9.83287z"/><path d="M154.03526,199.62397v-9.83287h18.9634v9.83287z"/><path d="M173.08227,199.70753v-9.83287h18.9634v9.83287z"/><path d="M192.12924,199.7911v-9.83287h18.9634v9.83287z"/><path d="M210.70798,199.87466v-9.83287h18.9634v9.83287z"/></g><g><path d="M-27.72227,209.37327v-9.83287h18.9634v9.83287z"/><path d="M-8.67533,209.45684v-9.83287h18.9634v9.83287z"/><path d="M10.37162,209.5404v-9.83287h18.9634v9.83287z"/><path d="M29.41861,209.62396v-9.83287h18.9634v9.83287z"/><path d="M48.449,209.45684v-9.83287h18.9634v9.83287z"/><path d="M67.49597,209.5404v-9.83287h18.9634v9.83287z"/><path d="M87.07815,209.45684v-9.83287h18.9634v9.83287z"/><path d="M106.12507,209.5404v-9.83287h18.9634v9.83287z"/><path d="M125.17201,209.62397v-9.83287h18.9634v9.83287z"/><path d="M144.219,209.70753v-9.83287h18.9634v9.83287z"/><path d="M163.24937,209.5404v-9.83287h18.9634v9.83287z"/><path d="M182.29636,209.62397v-9.83287h18.9634v9.83287z"/><path d="M201.34333,209.70753v-9.83287h18.9634v9.83287z"/><path d="M219.92207,209.79109v-9.83287h18.9634v9.83287z"/></g></g><g fill="#c6b37b" stroke-linecap="butt"><g><path d="M-36.85279,219.20615v-9.83287h18.9634v9.83287z"/><path d="M-17.80585,219.28971v-9.83287h18.9634v9.83287z"/><path d="M1.24113,219.37328v-9.83287h18.9634v9.83287z"/><path d="M20.28808,219.45684v-9.83287h18.9634v9.83287z"/><path d="M39.31848,219.28971v-9.83287h18.9634v9.83287z"/><path d="M58.36544,219.37328v-9.83287h18.9634v9.83287z"/><path d="M77.94761,219.28971v-9.83287h18.9634v9.83287z"/><path d="M96.99458,219.37328v-9.83287h18.9634v9.83287z"/><path d="M116.04152,219.45684v-9.83287h18.9634v9.83287z"/><path d="M135.08844,219.5404v-9.83287h18.9634v9.83287z"/><path d="M154.1189,219.37328v-9.83287h18.9634v9.83287z"/><path d="M173.16582,219.45684v-9.83287h18.9634v9.83287z"/><path d="M192.21282,219.54041v-9.83287h18.9634v9.83287z"/><path d="M210.79155,219.62397v-9.83287h18.9634v9.83287z"/></g><g><path d="M-27.6387,229.12258v-9.83287h18.9634v9.83287z"/><path d="M-8.59175,229.20615v-9.83287h18.9634v9.83287z"/><path d="M10.45516,229.28971v-9.83287h18.9634v9.83287z"/><path d="M29.50218,229.37327v-9.83287h18.9634v9.83287z"/><path d="M48.53257,229.20615v-9.83287h18.9634v9.83287z"/><path d="M67.57953,229.28971v-9.83287h18.9634v9.83287z"/><path d="M87.1617,229.20615v-9.83287h18.9634v9.83287z"/><path d="M106.20862,229.28971v-9.83287h18.9634v9.83287z"/><path d="M125.25563,229.37328v-9.83287h18.9634v9.83287z"/><path d="M144.30255,229.45684v-9.83287h18.9634v9.83287z"/><path d="M163.33299,229.28971v-9.83287h18.9634v9.83287z"/><path d="M182.37991,229.37328v-9.83287h18.9634v9.83287z"/><path d="M201.42691,229.45684v-9.83287h18.9634v9.83287z"/><path d="M220.00564,229.5404v-9.83287h18.9634v9.83287z"/></g></g><g stroke-linecap="butt"><path d="M-36.88148,150.18326v-19.72366h19.43809v19.72366z" fill="#c6b37b"/><path d="M-33.50779,146.76622v-12.93476h12.74749v12.93476z" fill="#a37e27"/></g><g stroke-linecap="butt"><path d="M-37.03203,229.16392v-19.72365h19.43809v19.72365z" fill="#c6b37b"/><path d="M-33.65834,225.74689v-12.93476h12.74749v12.93476z" fill="#a37e27"/></g><g stroke-linecap="butt"><path d="M219.47708,150.5845v-19.72366h19.43809v19.72366z" fill="#c6b37b"/><path d="M222.85078,147.16747v-12.93476h12.74749v12.93476z" fill="#a37e27"/></g><g stroke-linecap="butt"><path d="M219.75403,229.33105v-19.72365h19.43809v19.72365z" fill="#c6b37b"/><path d="M223.12771,225.91401v-12.93476h12.74749v12.93476z" fill="#a37e27"/></g><g><path d="M67.93469,180.49581c0,16.29164 -13.46902,29.49862 -30.08391,29.49862c-16.61488,0 -30.08391,-13.20698 -30.08391,-29.49861c0,-16.29164 13.46902,-29.49862 30.08391,-29.49862c16.61488,0 30.08391,13.20699 30.08391,29.49862z" fill="#c6b37b" stroke-linecap="butt"/><path d="M67.96944,180.13152l-60.23735,0.72858" fill="none" stroke-linecap="round"/><path d="M37.71399,152.02579l0.34978,57.49014" fill="none" stroke-linecap="round"/><path d="M23.43027,206.41394l28.70395,-51.5612" fill="none" stroke-linecap="round"/><path d="M12.06104,195.00534l51.35318,-28.88153" fill="none" stroke-linecap="round"/><path d="M64.58732,193.67866l-53.47309,-26.36569" fill="none" stroke-linecap="round"/><path d="M22.51237,156.12746l30.86895,49.02149" fill="none" stroke-linecap="round"/><path d="M63.60355,180.49581c0,14.06467 -11.5299,25.46634 -25.75276,25.46634c-14.22286,0 -25.75277,-11.40167 -25.75277,-25.46634c0,-14.06467 11.52991,-25.46634 25.75277,-25.46634c14.22286,0 25.75276,11.40167 25.75276,25.46634z" fill="#c6b37b" stroke-linecap="butt"/></g><g><path d="M196.12365,180c0,16.29164 -13.46902,29.49862 -30.08391,29.49862c-16.61488,0 -30.08391,-13.20698 -30.08391,-29.49861c0,-16.29164 13.46902,-29.49862 30.08391,-29.49862c16.61488,0 30.08391,13.20699 30.08391,29.49862z" fill="#c6b37b" stroke-linecap="butt"/><path d="M135.92107,180.36429l60.23735,-0.72858" fill="none" stroke-linecap="round"/><path d="M165.90294,151.52998l0.34978,57.49014" fill="none" stroke-linecap="round"/><path d="M180.32318,154.35693l-28.70395,51.5612" fill="none" stroke-linecap="round"/><path d="M140.25,194.50953l51.35318,-28.88153" fill="none" stroke-linecap="round"/><path d="M139.30319,166.81716l53.47309,26.36569" fill="none" stroke-linecap="round"/><path d="M150.70133,155.63165l30.86895,49.02149" fill="none" stroke-linecap="round"/><path d="M191.79251,180c0,14.06467 -11.5299,25.46634 -25.75276,25.46634c-14.22286,0 -25.75277,-11.40167 -25.75277,-25.46634c0,-14.06467 11.52991,-25.46634 25.75277,-25.46634c14.22286,0 25.75276,11.40167 25.75276,25.46634z" fill="#c6b37b" stroke-linecap="butt"/></g><path d="M499.04673,230.01817v-98.79696h18.9634v98.79696z" fill="#c6b37b" stroke-linecap="butt"/><path d="M241.87107,229.52052v-98.32872h256.12293v98.32873z" fill="#c6b37b" stroke-linecap="butt"/><path d="M356.60449,141.04125v-9.83287h18.9634v9.83287z" fill="#c6b37b" stroke-linecap="butt"/><path d="M375.18322,141.12481v-9.83287h18.9634v9.83287z" fill="#c6b37b" stroke-linecap="butt"/><g fill="#c6b37b" stroke-linecap="butt"><path d="M242.03819,160.38931v-9.83287h18.9634v9.83287z"/><path d="M261.08514,160.47287v-9.83287h18.9634v9.83287z"/><path d="M280.13208,160.55644v-9.83287h18.9634v9.83287z"/><path d="M299.17908,160.63999v-9.83287h18.9634v9.83287z"/><path d="M318.20946,160.47287v-9.83287h18.9634v9.83287z"/><path d="M337.25643,160.55644v-9.83287h18.9634v9.83287z"/><path d="M356.83861,160.47287v-9.83287h18.9634v9.83287z"/><path d="M375.88557,160.55644v-9.83287h18.9634v9.83287z"/><path d="M394.93245,160.64v-9.83287h18.9634v9.83287z"/><path d="M413.97946,160.72356v-9.83287h18.9634v9.83287z"/><path d="M433.00981,160.55644v-9.83287h18.9634v9.83287z"/><path d="M452.05682,160.64v-9.83287h18.9634v9.83287z"/><path d="M471.10379,160.72357v-9.83287h18.9634v9.83287z"/><path d="M489.68253,160.80713v-9.83287h18.9634v9.83287z"/></g><g fill="#c6b37b" stroke-linecap="butt"><g><path d="M242.3393,140.79055v-9.83287h18.9634v9.83287z"/><path d="M261.3862,140.87411v-9.83287h18.9634v9.83287z"/><path d="M280.43321,140.95768v-9.83287h18.9634v9.83287z"/><path d="M299.48018,141.04124v-9.83287h18.9634v9.83287z"/><path d="M318.51057,140.87411v-9.83287h18.9634v9.83287z"/><path d="M337.55753,140.95768v-9.83287h18.9634v9.83287z"/><path d="M357.13969,140.87411v-9.83287h18.9634v9.83287z"/><path d="M376.18666,140.95768v-9.83287h18.9634v9.83287z"/><path d="M395.23363,141.04125v-9.83287h18.9634v9.83287z"/><path d="M414.28059,141.12481v-9.83287h18.9634v9.83287z"/><path d="M433.31096,140.95768v-9.83287h18.9634v9.83287z"/><path d="M452.35788,141.04125v-9.83287h18.9634v9.83287z"/><path d="M471.40491,141.12481v-9.83287h18.9634v9.83287z"/><path d="M489.98364,141.20836v-9.83287h18.9634v9.83287z"/></g><g><path d="M251.55339,150.70698v-9.83287h18.9634v9.83287z"/><path d="M270.60029,150.79055v-9.83287h18.9634v9.83287z"/><path d="M289.6473,150.87411v-9.83287h18.9634v9.83287z"/><path d="M308.69427,150.95768v-9.83287h18.9634v9.83287z"/><path d="M327.72466,150.79055v-9.83287h18.9634v9.83287z"/><path d="M346.7716,150.87411v-9.83287h18.9634v9.83287z"/><path d="M366.35378,150.79055v-9.83287h18.9634v9.83287z"/><path d="M385.40075,150.87411v-9.83287h18.9634v9.83287z"/><path d="M404.44767,150.95768v-9.83287h18.9634v9.83287z"/><path d="M423.49466,151.04124v-9.83287h18.9634v9.83287z"/><path d="M442.52503,150.87411v-9.83287h18.9634v9.83287z"/><path d="M461.57202,150.95768v-9.83287h18.9634v9.83287z"/><path d="M480.619,151.04125v-9.83287h18.9634v9.83287z"/><path d="M499.19772,151.12481v-9.83287h18.9634v9.83287z"/></g></g><g fill="#c6b37b" stroke-linecap="butt"><g><path d="M241.95463,160.53985v-9.83287h18.9634v9.83287z"/><path d="M261.00152,160.62343v-9.83287h18.9634v9.83287z"/><path d="M280.04853,160.70699v-9.83287h18.9634v9.83287z"/><path d="M299.0955,160.79055v-9.83287h18.9634v9.83287z"/><path d="M318.1259,160.62343v-9.83287h18.9634v9.83287z"/><path d="M337.17286,160.70699v-9.83287h18.9634v9.83287z"/><path d="M356.75503,160.62343v-9.83287h18.9634v9.83287z"/><path d="M375.802,160.70699v-9.83287h18.9634v9.83287z"/><path d="M394.84892,160.79056v-9.83287h18.9634v9.83287z"/><path d="M413.89591,160.87411v-9.83287h18.9634v9.83287z"/><path d="M432.92628,160.70699v-9.83287h18.9634v9.83287z"/><path d="M451.9732,160.79056v-9.83287h18.9634v9.83287z"/><path d="M471.02024,160.87411v-9.83287h18.9634v9.83287z"/><path d="M489.59897,160.95768v-9.83287h18.9634v9.83287z"/></g><g><path d="M251.16872,170.4563v-9.83287h18.9634v9.83287z"/><path d="M270.21568,170.53986v-9.83287h18.9634v9.83287z"/><path d="M289.26264,170.62343v-9.83287h18.9634v9.83287z"/><path d="M308.3096,170.70699v-9.83287h18.9634v9.83287z"/><path d="M327.33999,170.53986v-9.83287h18.9634v9.83287z"/><path d="M346.38695,170.62343v-9.83287h18.9634v9.83287z"/><path d="M365.96912,170.53986v-9.83287h18.9634v9.83287z"/><path d="M385.01607,170.62343v-9.83287h18.9634v9.83287z"/><path d="M404.06299,170.70699v-9.83287h18.9634v9.83287z"/><path d="M423.11,170.79055v-9.83287h18.9634v9.83287z"/><path d="M442.14037,170.62343v-9.83287h18.9634v9.83287z"/><path d="M461.18734,170.70699v-9.83287h18.9634v9.83287z"/><path d="M480.23433,170.79056v-9.83287h18.9634v9.83287z"/><path d="M498.81306,170.87412v-9.83287h18.9634v9.83287z"/></g></g><g fill="#c6b37b" stroke-linecap="butt"><g><path d="M242.42286,180.20561v-9.83287h18.9634v9.83287z"/><path d="M261.46982,180.28917v-9.83287h18.9634v9.83287z"/><path d="M280.51676,180.37274v-9.83287h18.9634v9.83287z"/><path d="M299.56375,180.4563v-9.83287h18.9634v9.83287z"/><path d="M318.59412,180.28917v-9.83287h18.9634v9.83287z"/><path d="M337.64109,180.37274v-9.83287h18.9634v9.83287z"/><path d="M357.22328,180.28917v-9.83287h18.9634v9.83287z"/><path d="M376.27024,180.37274v-9.83287h18.9634v9.83287z"/><path d="M395.31713,180.4563v-9.83287h18.9634v9.83287z"/><path d="M414.36412,180.53986v-9.83287h18.9634v9.83287z"/><path d="M433.39449,180.37274v-9.83287h18.9634v9.83287z"/><path d="M452.4415,180.4563v-9.83287h18.9634v9.83287z"/><path d="M471.48847,180.53987v-9.83287h18.9634v9.83287z"/><path d="M490.0672,180.62343v-9.83287h18.9634v9.83287z"/></g><g><path d="M251.63695,190.12204v-9.83287h18.9634v9.83287z"/><path d="M270.68384,190.20561v-9.83287h18.9634v9.83287z"/><path d="M289.73085,190.28917v-9.83287h18.9634v9.83287z"/><path d="M308.77784,190.37273v-9.83287h18.9634v9.83287z"/><path d="M327.80821,190.20561v-9.83287h18.9634v9.83287z"/><path d="M346.85518,190.28917v-9.83287h18.9634v9.83287z"/><path d="M366.43737,190.20561v-9.83287h18.9634v9.83287z"/><path d="M385.4843,190.28917v-9.83287h18.9634v9.83287z"/><path d="M404.53127,190.37274v-9.83287h18.9634v9.83287z"/><path d="M423.57823,190.4563v-9.83287h18.9634v9.83287z"/><path d="M442.60863,190.28917v-9.83287h18.9634v9.83287z"/><path d="M461.65559,190.37274v-9.83287h18.9634v9.83287z"/><path d="M480.70256,190.4563v-9.83287h18.9634v9.83287z"/><path d="M499.28129,190.53986v-9.83287h18.9634v9.83287z"/></g></g><g fill="#c6b37b" stroke-linecap="butt"><g><path d="M242.03819,199.95492v-9.83287h18.9634v9.83287z"/><path d="M261.08514,200.03848v-9.83287h18.9634v9.83287z"/><path d="M280.13208,200.12205v-9.83287h18.9634v9.83287z"/><path d="M299.17908,200.20561v-9.83287h18.9634v9.83287z"/><path d="M318.20946,200.03848v-9.83287h18.9634v9.83287z"/><path d="M337.25643,200.12205v-9.83287h18.9634v9.83287z"/><path d="M356.83861,200.03848v-9.83287h18.9634v9.83287z"/><path d="M375.88557,200.12205v-9.83287h18.9634v9.83287z"/><path d="M394.93245,200.20561v-9.83287h18.9634v9.83287z"/><path d="M413.97946,200.28917v-9.83287h18.9634v9.83287z"/><path d="M433.00981,200.12205v-9.83287h18.9634v9.83287z"/><path d="M452.05682,200.20561v-9.83287h18.9634v9.83287z"/><path d="M471.10379,200.28918v-9.83287h18.9634v9.83287z"/><path d="M489.68253,200.37274v-9.83287h18.9634v9.83287z"/></g><g><path d="M251.25228,209.87135v-9.83287h18.9634v9.83287z"/><path d="M270.29923,209.95492v-9.83287h18.9634v9.83287z"/><path d="M289.34617,210.03848v-9.83287h18.9634v9.83287z"/><path d="M308.39316,210.12204v-9.83287h18.9634v9.83287z"/><path d="M327.42355,209.95492v-9.83287h18.9634v9.83287z"/><path d="M346.47052,210.03848v-9.83287h18.9634v9.83287z"/><path d="M366.0527,209.95492v-9.83287h18.9634v9.83287z"/><path d="M385.09962,210.03848v-9.83287h18.9634v9.83287z"/><path d="M404.14656,210.12205v-9.83287h18.9634v9.83287z"/><path d="M423.19355,210.20561v-9.83287h18.9634v9.83287z"/><path d="M442.22392,210.03848v-9.83287h18.9634v9.83287z"/><path d="M461.27091,210.12205v-9.83287h18.9634v9.83287z"/><path d="M480.31788,210.20561v-9.83287h18.9634v9.83287z"/><path d="M498.89662,210.28917v-9.83287h18.9634v9.83287z"/></g></g><g fill="#c6b37b" stroke-linecap="butt"><g><path d="M242.12176,219.70423v-9.83287h18.9634v9.83287z"/><path d="M261.16871,219.78779v-9.83287h18.9634v9.83287z"/><path d="M280.21568,219.87136v-9.83287h18.9634v9.83287z"/><path d="M299.26264,219.95492v-9.83287h18.9634v9.83287z"/><path d="M318.29303,219.78779v-9.83287h18.9634v9.83287z"/><path d="M337.33999,219.87136v-9.83287h18.9634v9.83287z"/><path d="M356.92216,219.78779v-9.83287h18.9634v9.83287z"/><path d="M375.96913,219.87136v-9.83287h18.9634v9.83287z"/><path d="M395.01607,219.95492v-9.83287h18.9634v9.83287z"/><path d="M414.06299,220.03848v-9.83287h18.9634v9.83287z"/><path d="M433.09345,219.87136v-9.83287h18.9634v9.83287z"/><path d="M452.14037,219.95492v-9.83287h18.9634v9.83287z"/><path d="M471.18737,220.03849v-9.83287h18.9634v9.83287z"/><path d="M489.7661,220.12205v-9.83287h18.9634v9.83287z"/></g><g><path d="M251.33585,229.62066v-9.83287h18.9634v9.83287z"/><path d="M270.3828,229.70423v-9.83287h18.9634v9.83287z"/><path d="M289.42972,229.78779v-9.83287h18.9634v9.83287z"/><path d="M308.47673,229.87135v-9.83287h18.9634v9.83287z"/><path d="M327.50712,229.70423v-9.83287h18.9634v9.83287z"/><path d="M346.55408,229.78779v-9.83287h18.9634v9.83287z"/><path d="M366.13625,229.70423v-9.83287h18.9634v9.83287z"/><path d="M385.18317,229.78779v-9.83287h18.9634v9.83287z"/><path d="M404.23018,229.87136v-9.83287h18.9634v9.83287z"/><path d="M423.2771,229.95492v-9.83287h18.9634v9.83287z"/><path d="M442.30754,229.78779v-9.83287h18.9634v9.83287z"/><path d="M461.35446,229.87136v-9.83287h18.9634v9.83287z"/><path d="M480.40146,229.95492v-9.83287h18.9634v9.83287z"/><path d="M498.98019,230.03848v-9.83287h18.9634v9.83287z"/></g></g><g stroke-linecap="butt"><path d="M242.09307,150.68133v-19.72366h19.43809v19.72366z" fill="#c6b37b"/><path d="M245.46676,147.2643v-12.93476h12.74749v12.93476z" fill="#a37e27"/></g><g stroke-linecap="butt"><path d="M241.94252,229.662v-19.72365h19.43809v19.72365z" fill="#c6b37b"/><path d="M245.31621,226.24497v-12.93476h12.74749v12.93476z" fill="#a37e27"/></g><g stroke-linecap="butt"><path d="M498.45163,151.08258v-19.72366h19.43809v19.72366z" fill="#c6b37b"/><path d="M501.82533,147.66555v-12.93476h12.74749v12.93476z" fill="#a37e27"/></g><g stroke-linecap="butt"><path d="M498.72858,229.82913v-19.72365h19.43809v19.72365z" fill="#c6b37b"/><path d="M502.10226,226.41209v-12.93476h12.74749v12.93476z" fill="#a37e27"/></g><g><path d="M346.90924,180.99389c0,16.29164 -13.46902,29.49862 -30.08391,29.49862c-16.61488,0 -30.08391,-13.20698 -30.08391,-29.49861c0,-16.29164 13.46902,-29.49862 30.08391,-29.49862c16.61488,0 30.08391,13.20699 30.08391,29.49862z" fill="#c6b37b" stroke-linecap="butt"/><path d="M346.944,180.6296l-60.23735,0.72858" fill="none" stroke-linecap="round"/><path d="M316.68854,152.52387l0.34978,57.49014" fill="none" stroke-linecap="round"/><path d="M302.40482,206.91202l28.70395,-51.5612" fill="none" stroke-linecap="round"/><path d="M291.03559,195.50342l51.35318,-28.88153" fill="none" stroke-linecap="round"/><path d="M343.56187,194.17674l-53.47309,-26.36569" fill="none" stroke-linecap="round"/><path d="M301.48692,156.62554l30.86895,49.02149" fill="none" stroke-linecap="round"/><path d="M342.5781,180.99389c0,14.06467 -11.5299,25.46634 -25.75276,25.46634c-14.22286,0 -25.75277,-11.40167 -25.75277,-25.46634c0,-14.06467 11.52991,-25.46634 25.75277,-25.46634c14.22286,0 25.75276,11.40167 25.75276,25.46634z" fill="#c6b37b" stroke-linecap="butt"/></g><g><path d="M475.0982,180.49808c0,16.29164 -13.46902,29.49862 -30.08391,29.49862c-16.61488,0 -30.08391,-13.20698 -30.08391,-29.49861c0,-16.29164 13.46902,-29.49862 30.08391,-29.49862c16.61488,0 30.08391,13.20699 30.08391,29.49862z" fill="#c6b37b" stroke-linecap="butt"/><path d="M414.89562,180.86237l60.23735,-0.72858" fill="none" stroke-linecap="round"/><path d="M444.8775,152.02806l0.34978,57.49014" fill="none" stroke-linecap="round"/><path d="M459.29773,154.85501l-28.70395,51.5612" fill="none" stroke-linecap="round"/><path d="M419.22455,195.00761l51.35318,-28.88153" fill="none" stroke-linecap="round"/><path d="M418.27774,167.31524l53.47309,26.36569" fill="none" stroke-linecap="round"/><path d="M429.67588,156.12973l30.86895,49.02149" fill="none" stroke-linecap="round"/><path d="M470.76706,180.49808c0,14.06467 -11.5299,25.46634 -25.75276,25.46634c-14.22286,0 -25.75277,-11.40167 -25.75277,-25.46634c0,-14.06467 11.52991,-25.46634 25.75277,-25.46634c14.22286,0 25.75276,11.40167 25.75276,25.46634z" fill="#c6b37b" stroke-linecap="butt"/></g></g></g></svg>