<svg version="1.1" xmlns="http://www.w3.org/2000/svg" xmlns:xlink="http://www.w3.org/1999/xlink" width="674.4337" height="132.06817" viewBox="0,0,674.4337,132.06817"><g transform="translate(97.11783,-118.26282)"><g data-paper-data="{&quot;isPaintingLayer&quot;:true}" fill-rule="nonzero" stroke="#000000" stroke-width="2" stroke-linejoin="miter" stroke-miterlimit="10" stroke-dasharray="" stroke-dashoffset="0" style="mix-blend-mode: normal"><path d="M161.05783,232.96837v-98.79696h18.9634v98.79696z" fill="#c6b37b" stroke-linecap="butt"/><path d="M-96.11783,232.47072v-98.32872h256.12293v98.32873z" fill="#c6b37b" stroke-linecap="butt"/><path d="M18.61559,143.99145v-9.83287h18.9634v9.83287z" fill="#c6b37b" stroke-linecap="butt"/><path d="M37.19432,144.07501v-9.83287h18.9634v9.83287z" fill="#c6b37b" stroke-linecap="butt"/><g fill="#c6b37b" stroke-linecap="butt"><path d="M-95.95071,163.33951v-9.83287h18.9634v9.83287z"/><path d="M-76.90375,163.42307v-9.83287h18.9634v9.83287z"/><path d="M-57.85681,163.50663v-9.83287h18.9634v9.83287z"/><path d="M-38.80982,163.59019v-9.83287h18.9634v9.83287z"/><path d="M-19.77944,163.42307v-9.83287h18.9634v9.83287z"/><path d="M-0.73247,163.50663v-9.83287h18.9634v9.83287z"/><path d="M18.84971,163.42307v-9.83287h18.9634v9.83287z"/><path d="M37.89667,163.50663v-9.83287h18.9634v9.83287z"/><path d="M56.94356,163.5902v-9.83287h18.9634v9.83287z"/><path d="M75.99057,163.67376v-9.83287h18.9634v9.83287z"/><path d="M95.02092,163.50663v-9.83287h18.9634v9.83287z"/><path d="M114.06792,163.5902v-9.83287h18.9634v9.83287z"/><path d="M133.1149,163.67377v-9.83287h18.9634v9.83287z"/><path d="M151.69363,163.75733v-9.83287h18.9634v9.83287z"/></g><g fill="#c6b37b" stroke-linecap="butt"><g><path d="M-95.6496,143.74075v-9.83287h18.9634v9.83287z"/><path d="M-76.60269,143.82432v-9.83287h18.9634v9.83287z"/><path d="M-57.55569,143.90787v-9.83287h18.9634v9.83287z"/><path d="M-38.50872,143.99144v-9.83287h18.9634v9.83287z"/><path d="M-19.47833,143.82432v-9.83287h18.9634v9.83287z"/><path d="M-0.43137,143.90787v-9.83287h18.9634v9.83287z"/><path d="M19.15079,143.82432v-9.83287h18.9634v9.83287z"/><path d="M38.19777,143.90787v-9.83287h18.9634v9.83287z"/><path d="M57.24473,143.99145v-9.83287h18.9634v9.83287z"/><path d="M76.2917,144.07501v-9.83287h18.9634v9.83287z"/><path d="M95.32207,143.90787v-9.83287h18.9634v9.83287z"/><path d="M114.36899,143.99145v-9.83287h18.9634v9.83287z"/><path d="M133.41601,144.07501v-9.83287h18.9634v9.83287z"/><path d="M151.99474,144.15857v-9.83287h18.9634v9.83287z"/></g><g><path d="M-86.43551,153.65718v-9.83287h18.9634v9.83287z"/><path d="M-67.3886,153.74075v-9.83287h18.9634v9.83287z"/><path d="M-48.3416,153.82432v-9.83287h18.9634v9.83287z"/><path d="M-29.29463,153.90787v-9.83287h18.9634v9.83287z"/><path d="M-10.26424,153.74075v-9.83287h18.9634v9.83287z"/><path d="M8.7827,153.82432v-9.83287h18.9634v9.83287z"/><path d="M28.36488,153.74075v-9.83287h18.9634v9.83287z"/><path d="M47.41185,153.82432v-9.83287h18.9634v9.83287z"/><path d="M66.45878,153.90787v-9.83287h18.9634v9.83287z"/><path d="M85.50576,153.99144v-9.83287h18.9634v9.83287z"/><path d="M104.53614,153.82432v-9.83287h18.9634v9.83287z"/><path d="M123.58312,153.90787v-9.83287h18.9634v9.83287z"/><path d="M142.6301,153.99145v-9.83287h18.9634v9.83287z"/><path d="M161.20883,154.07501v-9.83287h18.9634v9.83287z"/></g></g><g fill="#c6b37b" stroke-linecap="butt"><g><path d="M-96.03427,163.49006v-9.83287h18.9634v9.83287z"/><path d="M-76.98737,163.57363v-9.83287h18.9634v9.83287z"/><path d="M-57.94037,163.65719v-9.83287h18.9634v9.83287z"/><path d="M-38.89339,163.74075v-9.83287h18.9634v9.83287z"/><path d="M-19.863,163.57363v-9.83287h18.9634v9.83287z"/><path d="M-0.81604,163.65719v-9.83287h18.9634v9.83287z"/><path d="M18.76613,163.57363v-9.83287h18.9634v9.83287z"/><path d="M37.8131,163.65719v-9.83287h18.9634v9.83287z"/><path d="M56.86003,163.74076v-9.83287h18.9634v9.83287z"/><path d="M75.90702,163.82432v-9.83287h18.9634v9.83287z"/><path d="M94.93739,163.65719v-9.83287h18.9634v9.83287z"/><path d="M113.98431,163.74076v-9.83287h18.9634v9.83287z"/><path d="M133.03134,163.82432v-9.83287h18.9634v9.83287z"/><path d="M151.61007,163.90787v-9.83287h18.9634v9.83287z"/></g><g><path d="M-86.82018,173.4065v-9.83287h18.9634v9.83287z"/><path d="M-67.77322,173.49006v-9.83287h18.9634v9.83287z"/><path d="M-48.72626,173.57363v-9.83287h18.9634v9.83287z"/><path d="M-29.6793,173.65719v-9.83287h18.9634v9.83287z"/><path d="M-10.64891,173.49006v-9.83287h18.9634v9.83287z"/><path d="M8.39805,173.57363v-9.83287h18.9634v9.83287z"/><path d="M27.98022,173.49006v-9.83287h18.9634v9.83287z"/><path d="M47.02717,173.57363v-9.83287h18.9634v9.83287z"/><path d="M66.0741,173.65719v-9.83287h18.9634v9.83287z"/><path d="M85.1211,173.74075v-9.83287h18.9634v9.83287z"/><path d="M104.15148,173.57363v-9.83287h18.9634v9.83287z"/><path d="M123.19844,173.65719v-9.83287h18.9634v9.83287z"/><path d="M142.24543,173.74076v-9.83287h18.9634v9.83287z"/><path d="M160.82416,173.82432v-9.83287h18.9634v9.83287z"/></g></g><g fill="#c6b37b" stroke-linecap="butt"><g><path d="M-95.56604,183.15581v-9.83287h18.9634v9.83287z"/><path d="M-76.51908,183.23937v-9.83287h18.9634v9.83287z"/><path d="M-57.47214,183.32294v-9.83287h18.9634v9.83287z"/><path d="M-38.42515,183.4065v-9.83287h18.9634v9.83287z"/><path d="M-19.39478,183.23937v-9.83287h18.9634v9.83287z"/><path d="M-0.3478,183.32294v-9.83287h18.9634v9.83287z"/><path d="M19.23438,183.23937v-9.83287h18.9634v9.83287z"/><path d="M38.28134,183.32294v-9.83287h18.9634v9.83287z"/><path d="M57.32824,183.4065v-9.83287h18.9634v9.83287z"/><path d="M76.37523,183.49006v-9.83287h18.9634v9.83287z"/><path d="M95.4056,183.32294v-9.83287h18.9634v9.83287z"/><path d="M114.4526,183.4065v-9.83287h18.9634v9.83287z"/><path d="M133.49957,183.49007v-9.83287h18.9634v9.83287z"/><path d="M152.0783,183.57363v-9.83287h18.9634v9.83287z"/></g><g><path d="M-86.35195,193.07224v-9.83287h18.9634v9.83287z"/><path d="M-67.30505,193.15581v-9.83287h18.9634v9.83287z"/><path d="M-48.25805,193.23937v-9.83287h18.9634v9.83287z"/><path d="M-29.21106,193.32293v-9.83287h18.9634v9.83287z"/><path d="M-10.18069,193.15581v-9.83287h18.9634v9.83287z"/><path d="M8.86629,193.23937v-9.83287h18.9634v9.83287z"/><path d="M28.44847,193.15581v-9.83287h18.9634v9.83287z"/><path d="M47.49541,193.23937v-9.83287h18.9634v9.83287z"/><path d="M66.54237,193.32294v-9.83287h18.9634v9.83287z"/><path d="M85.58934,193.4065v-9.83287h18.9634v9.83287z"/><path d="M104.61973,193.23937v-9.83287h18.9634v9.83287z"/><path d="M123.6667,193.32294v-9.83287h18.9634v9.83287z"/><path d="M142.71366,193.4065v-9.83287h18.9634v9.83287z"/><path d="M161.29239,193.49006v-9.83287h18.9634v9.83287z"/></g></g><g fill="#c6b37b" stroke-linecap="butt"><g><path d="M-95.95071,202.90512v-9.83287h18.9634v9.83287z"/><path d="M-76.90375,202.98868v-9.83287h18.9634v9.83287z"/><path d="M-57.85681,203.07225v-9.83287h18.9634v9.83287z"/><path d="M-38.80982,203.15581v-9.83287h18.9634v9.83287z"/><path d="M-19.77944,202.98868v-9.83287h18.9634v9.83287z"/><path d="M-0.73247,203.07225v-9.83287h18.9634v9.83287z"/><path d="M18.84971,202.98868v-9.83287h18.9634v9.83287z"/><path d="M37.89667,203.07225v-9.83287h18.9634v9.83287z"/><path d="M56.94356,203.15581v-9.83287h18.9634v9.83287z"/><path d="M75.99057,203.23937v-9.83287h18.9634v9.83287z"/><path d="M95.02092,203.07225v-9.83287h18.9634v9.83287z"/><path d="M114.06792,203.15581v-9.83287h18.9634v9.83287z"/><path d="M133.1149,203.23938v-9.83287h18.9634v9.83287z"/><path d="M151.69363,203.32294v-9.83287h18.9634v9.83287z"/></g><g><path d="M-86.73662,212.82155v-9.83287h18.9634v9.83287z"/><path d="M-67.68967,212.90512v-9.83287h18.9634v9.83287z"/><path d="M-48.64272,212.98868v-9.83287h18.9634v9.83287z"/><path d="M-29.59573,213.07224v-9.83287h18.9634v9.83287z"/><path d="M-10.56535,212.90512v-9.83287h18.9634v9.83287z"/><path d="M8.48162,212.98868v-9.83287h18.9634v9.83287z"/><path d="M28.0638,212.90512v-9.83287h18.9634v9.83287z"/><path d="M47.11073,212.98868v-9.83287h18.9634v9.83287z"/><path d="M66.15767,213.07225v-9.83287h18.9634v9.83287z"/><path d="M85.20466,213.15581v-9.83287h18.9634v9.83287z"/><path d="M104.23503,212.98868v-9.83287h18.9634v9.83287z"/><path d="M123.28202,213.07225v-9.83287h18.9634v9.83287z"/><path d="M142.32899,213.15581v-9.83287h18.9634v9.83287z"/><path d="M160.90772,213.23937v-9.83287h18.9634v9.83287z"/></g></g><g fill="#c6b37b" stroke-linecap="butt"><g><path d="M-95.86714,222.65443v-9.83287h18.9634v9.83287z"/><path d="M-76.82019,222.73799v-9.83287h18.9634v9.83287z"/><path d="M-57.77322,222.82156v-9.83287h18.9634v9.83287z"/><path d="M-38.72626,222.90512v-9.83287h18.9634v9.83287z"/><path d="M-19.69587,222.73799v-9.83287h18.9634v9.83287z"/><path d="M-0.64891,222.82156v-9.83287h18.9634v9.83287z"/><path d="M18.93327,222.73799v-9.83287h18.9634v9.83287z"/><path d="M37.98023,222.82156v-9.83287h18.9634v9.83287z"/><path d="M57.02717,222.90512v-9.83287h18.9634v9.83287z"/><path d="M76.0741,222.98868v-9.83287h18.9634v9.83287z"/><path d="M95.10455,222.82156v-9.83287h18.9634v9.83287z"/><path d="M114.15148,222.90512v-9.83287h18.9634v9.83287z"/><path d="M133.19847,222.98869v-9.83287h18.9634v9.83287z"/><path d="M151.7772,223.07225v-9.83287h18.9634v9.83287z"/></g><g><path d="M-86.65305,232.57086v-9.83287h18.9634v9.83287z"/><path d="M-67.6061,232.65443v-9.83287h18.9634v9.83287z"/><path d="M-48.55917,232.73799v-9.83287h18.9634v9.83287z"/><path d="M-29.51217,232.82155v-9.83287h18.9634v9.83287z"/><path d="M-10.48178,232.65443v-9.83287h18.9634v9.83287z"/><path d="M8.56518,232.73799v-9.83287h18.9634v9.83287z"/><path d="M28.14736,232.65443v-9.83287h18.9634v9.83287z"/><path d="M47.19428,232.73799v-9.83287h18.9634v9.83287z"/><path d="M66.24128,232.82156v-9.83287h18.9634v9.83287z"/><path d="M85.28821,232.90512v-9.83287h18.9634v9.83287z"/><path d="M104.31864,232.73799v-9.83287h18.9634v9.83287z"/><path d="M123.36557,232.82156v-9.83287h18.9634v9.83287z"/><path d="M142.41256,232.90512v-9.83287h18.9634v9.83287z"/><path d="M160.99129,232.98868v-9.83287h18.9634v9.83287z"/></g></g><g stroke-linecap="butt"><path d="M-95.89583,153.63154v-19.72366h19.43809v19.72366z" fill="#c6b37b"/><path d="M-92.52214,150.2145v-12.93476h12.74749v12.93476z" fill="#a37e27"/></g><g stroke-linecap="butt"><path d="M-96.04638,232.6122v-19.72365h19.43809v19.72365z" fill="#c6b37b"/><path d="M-92.67269,229.19517v-12.93476h12.74749v12.93476z" fill="#a37e27"/></g><g stroke-linecap="butt"><path d="M160.46273,154.03277v-19.72366h19.43809v19.72366z" fill="#c6b37b"/><path d="M163.83643,150.61575v-12.93476h12.74749v12.93476z" fill="#a37e27"/></g><g stroke-linecap="butt"><path d="M160.73968,232.77933v-19.72365h19.43809v19.72365z" fill="#c6b37b"/><path d="M164.11337,229.36229v-12.93476h12.74749v12.93476z" fill="#a37e27"/></g><g><path d="M7.75158,181.49988c0,16.29164 -13.46902,29.49862 -30.08391,29.49862c-16.61488,0 -30.08391,-13.20698 -30.08391,-29.49861c0,-16.29164 13.46902,-29.49862 30.08391,-29.49862c16.61488,0 30.08391,13.20699 30.08391,29.49862z" fill="#c6b37b" stroke-linecap="butt"/><path d="M7.78635,181.13559l-60.23735,0.72858" fill="none" stroke-linecap="round"/><path d="M-22.11934,210.52l-0.34978,-57.49014" fill="none" stroke-linecap="round"/><path d="M-36.75284,207.41801l28.70395,-51.5612" fill="none" stroke-linecap="round"/><path d="M3.23111,167.12788l-51.35318,28.88153" fill="none" stroke-linecap="round"/><path d="M4.40422,194.68273l-53.47309,-26.36569" fill="none" stroke-linecap="round"/><path d="M-37.67074,157.13153l30.86895,49.02149" fill="none" stroke-linecap="round"/><path d="M3.42044,181.49988c0,14.06467 -11.5299,25.46634 -25.75276,25.46634c-14.22286,0 -25.75277,-11.40167 -25.75277,-25.46634c0,-14.06467 11.52991,-25.46634 25.75277,-25.46634c14.22286,0 25.75276,11.40167 25.75276,25.46634z" fill="#c6b37b" stroke-linecap="butt"/></g><path d="M557.1179,234.34701v-98.79696h18.9634v98.79696z" fill="#c6b37b" stroke-linecap="butt"/><path d="M299.94225,233.84936v-98.32872h256.12293v98.32873z" fill="#c6b37b" stroke-linecap="butt"/><path d="M414.67567,145.37008v-9.83287h18.9634v9.83287z" fill="#c6b37b" stroke-linecap="butt"/><path d="M433.2544,145.45365v-9.83287h18.9634v9.83287z" fill="#c6b37b" stroke-linecap="butt"/><g fill="#c6b37b" stroke-linecap="butt"><path d="M300.10937,164.71815v-9.83287h18.9634v9.83287z"/><path d="M319.15632,164.80171v-9.83287h18.9634v9.83287z"/><path d="M338.20327,164.88528v-9.83287h18.9634v9.83287z"/><path d="M357.25026,164.96883v-9.83287h18.9634v9.83287z"/><path d="M376.28064,164.80171v-9.83287h18.9634v9.83287z"/><path d="M395.32761,164.88528v-9.83287h18.9634v9.83287z"/><path d="M414.90979,164.80171v-9.83287h18.9634v9.83287z"/><path d="M433.95675,164.88528v-9.83287h18.9634v9.83287z"/><path d="M453.00364,164.96884v-9.83287h18.9634v9.83287z"/><path d="M472.05065,165.05239v-9.83287h18.9634v9.83287z"/><path d="M491.081,164.88528v-9.83287h18.9634v9.83287z"/><path d="M510.128,164.96884v-9.83287h18.9634v9.83287z"/><path d="M529.17498,165.05241v-9.83287h18.9634v9.83287z"/><path d="M547.75371,165.13597v-9.83287h18.9634v9.83287z"/></g><g fill="#c6b37b" stroke-linecap="butt"><g><path d="M300.41048,145.11939v-9.83287h18.9634v9.83287z"/><path d="M319.45739,145.20296v-9.83287h18.9634v9.83287z"/><path d="M338.50439,145.28652v-9.83287h18.9634v9.83287z"/><path d="M357.55136,145.37008v-9.83287h18.9634v9.83287z"/><path d="M376.58175,145.20296v-9.83287h18.9634v9.83287z"/><path d="M395.62871,145.28652v-9.83287h18.9634v9.83287z"/><path d="M415.21087,145.20296v-9.83287h18.9634v9.83287z"/><path d="M434.25785,145.28652v-9.83287h18.9634v9.83287z"/><path d="M453.30481,145.37008v-9.83287h18.9634v9.83287z"/><path d="M472.35178,145.45365v-9.83287h18.9634v9.83287z"/><path d="M491.38215,145.28652v-9.83287h18.9634v9.83287z"/><path d="M510.42907,145.37008v-9.83287h18.9634v9.83287z"/><path d="M529.47609,145.45365v-9.83287h18.9634v9.83287z"/><path d="M548.05481,145.53721v-9.83287h18.9634v9.83287z"/></g><g><path d="M309.62457,155.03582v-9.83287h18.9634v9.83287z"/><path d="M328.67148,155.11939v-9.83287h18.9634v9.83287z"/><path d="M347.71848,155.20296v-9.83287h18.9634v9.83287z"/><path d="M366.76545,155.28652v-9.83287h18.9634v9.83287z"/><path d="M385.79584,155.11939v-9.83287h18.9634v9.83287z"/><path d="M404.84278,155.20296v-9.83287h18.9634v9.83287z"/><path d="M424.42496,155.11939v-9.83287h18.9634v9.83287z"/><path d="M443.47193,155.20296v-9.83287h18.9634v9.83287z"/><path d="M462.51886,155.28652v-9.83287h18.9634v9.83287z"/><path d="M481.56584,155.37008v-9.83287h18.9634v9.83287z"/><path d="M500.59622,155.20296v-9.83287h18.9634v9.83287z"/><path d="M519.6432,155.28652v-9.83287h18.9634v9.83287z"/><path d="M538.69017,155.37008v-9.83287h18.9634v9.83287z"/><path d="M557.26891,155.45365v-9.83287h18.9634v9.83287z"/></g></g><g fill="#c6b37b" stroke-linecap="butt"><g><path d="M300.02581,164.8687v-9.83287h18.9634v9.83287z"/><path d="M319.07271,164.95227v-9.83287h18.9634v9.83287z"/><path d="M338.11971,165.03582v-9.83287h18.9634v9.83287z"/><path d="M357.16669,165.11939v-9.83287h18.9634v9.83287z"/><path d="M376.19708,164.95227v-9.83287h18.9634v9.83287z"/><path d="M395.24404,165.03582v-9.83287h18.9634v9.83287z"/><path d="M414.82621,164.95227v-9.83287h18.9634v9.83287z"/><path d="M433.87318,165.03582v-9.83287h18.9634v9.83287z"/><path d="M452.92011,165.1194v-9.83287h18.9634v9.83287z"/><path d="M471.9671,165.20296v-9.83287h18.9634v9.83287z"/><path d="M490.99747,165.03582v-9.83287h18.9634v9.83287z"/><path d="M510.04439,165.1194v-9.83287h18.9634v9.83287z"/><path d="M529.09142,165.20296v-9.83287h18.9634v9.83287z"/><path d="M547.67015,165.28652v-9.83287h18.9634v9.83287z"/></g><g><path d="M309.2399,174.78514v-9.83287h18.9634v9.83287z"/><path d="M328.28686,174.8687v-9.83287h18.9634v9.83287z"/><path d="M347.33382,174.95227v-9.83287h18.9634v9.83287z"/><path d="M366.38078,175.03583v-9.83287h18.9634v9.83287z"/><path d="M385.41117,174.8687v-9.83287h18.9634v9.83287z"/><path d="M404.45813,174.95227v-9.83287h18.9634v9.83287z"/><path d="M424.0403,174.8687v-9.83287h18.9634v9.83287z"/><path d="M443.08725,174.95227v-9.83287h18.9634v9.83287z"/><path d="M462.13418,175.03583v-9.83287h18.9634v9.83287z"/><path d="M481.18118,175.11939v-9.83287h18.9634v9.83287z"/><path d="M500.21156,174.95227v-9.83287h18.9634v9.83287z"/><path d="M519.25852,175.03583v-9.83287h18.9634v9.83287z"/><path d="M538.30551,175.1194v-9.83287h18.9634v9.83287z"/><path d="M556.88424,175.20296v-9.83287h18.9634v9.83287z"/></g></g><g fill="#c6b37b" stroke-linecap="butt"><g><path d="M300.49404,184.53445v-9.83287h18.9634v9.83287z"/><path d="M319.541,184.61801v-9.83287h18.9634v9.83287z"/><path d="M338.58794,184.70158v-9.83287h18.9634v9.83287z"/><path d="M357.63493,184.78514v-9.83287h18.9634v9.83287z"/><path d="M376.6653,184.61801v-9.83287h18.9634v9.83287z"/><path d="M395.71228,184.70158v-9.83287h18.9634v9.83287z"/><path d="M415.29446,184.61801v-9.83287h18.9634v9.83287z"/><path d="M434.34142,184.70158v-9.83287h18.9634v9.83287z"/><path d="M453.38832,184.78514v-9.83287h18.9634v9.83287z"/><path d="M472.43531,184.8687v-9.83287h18.9634v9.83287z"/><path d="M491.46568,184.70158v-9.83287h18.9634v9.83287z"/><path d="M510.51268,184.78514v-9.83287h18.9634v9.83287z"/><path d="M529.55965,184.86871v-9.83287h18.9634v9.83287z"/><path d="M548.13838,184.95227v-9.83287h18.9634v9.83287z"/></g><g><path d="M309.70813,194.45088v-9.83287h18.9634v9.83287z"/><path d="M328.75503,194.53445v-9.83287h18.9634v9.83287z"/><path d="M347.80203,194.61801v-9.83287h18.9634v9.83287z"/><path d="M366.84902,194.70157v-9.83287h18.9634v9.83287z"/><path d="M385.87939,194.53445v-9.83287h18.9634v9.83287z"/><path d="M404.92637,194.61801v-9.83287h18.9634v9.83287z"/><path d="M424.50855,194.53445v-9.83287h18.9634v9.83287z"/><path d="M443.55549,194.61801v-9.83287h18.9634v9.83287z"/><path d="M462.60245,194.70158v-9.83287h18.9634v9.83287z"/><path d="M481.64942,194.78514v-9.83287h18.9634v9.83287z"/><path d="M500.67981,194.61801v-9.83287h18.9634v9.83287z"/><path d="M519.72678,194.70158v-9.83287h18.9634v9.83287z"/><path d="M538.77374,194.78514v-9.83287h18.9634v9.83287z"/><path d="M557.35247,194.8687v-9.83287h18.9634v9.83287z"/></g></g><g fill="#c6b37b" stroke-linecap="butt"><g><path d="M300.10937,204.28376v-9.83287h18.9634v9.83287z"/><path d="M319.15632,204.36732v-9.83287h18.9634v9.83287z"/><path d="M338.20327,204.45089v-9.83287h18.9634v9.83287z"/><path d="M357.25026,204.53445v-9.83287h18.9634v9.83287z"/><path d="M376.28064,204.36732v-9.83287h18.9634v9.83287z"/><path d="M395.32761,204.45089v-9.83287h18.9634v9.83287z"/><path d="M414.90979,204.36732v-9.83287h18.9634v9.83287z"/><path d="M433.95675,204.45089v-9.83287h18.9634v9.83287z"/><path d="M453.00364,204.53445v-9.83287h18.9634v9.83287z"/><path d="M472.05065,204.61801v-9.83287h18.9634v9.83287z"/><path d="M491.081,204.45089v-9.83287h18.9634v9.83287z"/><path d="M510.128,204.53445v-9.83287h18.9634v9.83287z"/><path d="M529.17498,204.61802v-9.83287h18.9634v9.83287z"/><path d="M547.75371,204.70158v-9.83287h18.9634v9.83287z"/></g><g><path d="M309.32346,214.20019v-9.83287h18.9634v9.83287z"/><path d="M328.37041,214.28376v-9.83287h18.9634v9.83287z"/><path d="M347.41736,214.36732v-9.83287h18.9634v9.83287z"/><path d="M366.46435,214.45088v-9.83287h18.9634v9.83287z"/><path d="M385.49473,214.28376v-9.83287h18.9634v9.83287z"/><path d="M404.5417,214.36732v-9.83287h18.9634v9.83287z"/><path d="M424.12388,214.28376v-9.83287h18.9634v9.83287z"/><path d="M443.17081,214.36732v-9.83287h18.9634v9.83287z"/><path d="M462.21775,214.45089v-9.83287h18.9634v9.83287z"/><path d="M481.26474,214.53445v-9.83287h18.9634v9.83287z"/><path d="M500.29511,214.36732v-9.83287h18.9634v9.83287z"/><path d="M519.3421,214.45089v-9.83287h18.9634v9.83287z"/><path d="M538.38906,214.53445v-9.83287h18.9634v9.83287z"/><path d="M556.9678,214.61801v-9.83287h18.9634v9.83287z"/></g></g><g fill="#c6b37b" stroke-linecap="butt"><g><path d="M300.19293,224.03307v-9.83287h18.9634v9.83287z"/><path d="M319.23989,224.11663v-9.83287h18.9634v9.83287z"/><path d="M338.28686,224.2002v-9.83287h18.9634v9.83287z"/><path d="M357.33382,224.28376v-9.83287h18.9634v9.83287z"/><path d="M376.36421,224.11663v-9.83287h18.9634v9.83287z"/><path d="M395.41117,224.2002v-9.83287h18.9634v9.83287z"/><path d="M414.99335,224.11663v-9.83287h18.9634v9.83287z"/><path d="M434.04031,224.2002v-9.83287h18.9634v9.83287z"/><path d="M453.08725,224.28376v-9.83287h18.9634v9.83287z"/><path d="M472.13418,224.36732v-9.83287h18.9634v9.83287z"/><path d="M491.16463,224.2002v-9.83287h18.9634v9.83287z"/><path d="M510.21156,224.28376v-9.83287h18.9634v9.83287z"/><path d="M529.25855,224.36733v-9.83287h18.9634v9.83287z"/><path d="M547.83728,224.45089v-9.83287h18.9634v9.83287z"/></g><g><path d="M309.40702,233.9495v-9.83287h18.9634v9.83287z"/><path d="M328.45398,234.03307v-9.83287h18.9634v9.83287z"/><path d="M347.50091,234.11663v-9.83287h18.9634v9.83287z"/><path d="M366.54791,234.20019v-9.83287h18.9634v9.83287z"/><path d="M385.5783,234.03307v-9.83287h18.9634v9.83287z"/><path d="M404.62526,234.11663v-9.83287h18.9634v9.83287z"/><path d="M424.20744,234.03307v-9.83287h18.9634v9.83287z"/><path d="M443.25436,234.11663v-9.83287h18.9634v9.83287z"/><path d="M462.30136,234.2002v-9.83287h18.9634v9.83287z"/><path d="M481.34829,234.28376v-9.83287h18.9634v9.83287z"/><path d="M500.37872,234.11663v-9.83287h18.9634v9.83287z"/><path d="M519.42565,234.2002v-9.83287h18.9634v9.83287z"/><path d="M538.47264,234.28376v-9.83287h18.9634v9.83287z"/><path d="M557.05137,234.36732v-9.83287h18.9634v9.83287z"/></g></g><g stroke-linecap="butt"><path d="M300.16425,155.01018v-19.72366h19.43809v19.72366z" fill="#c6b37b"/><path d="M303.53794,151.59313v-12.93476h12.74749v12.93476z" fill="#a37e27"/></g><g stroke-linecap="butt"><path d="M300.0137,233.99084v-19.72365h19.43809v19.72365z" fill="#c6b37b"/><path d="M303.38739,230.57381v-12.93476h12.74749v12.93476z" fill="#a37e27"/></g><g stroke-linecap="butt"><path d="M556.5228,155.41142v-19.72366h19.43809v19.72366z" fill="#c6b37b"/><path d="M559.89651,151.99439v-12.93476h12.74749v12.93476z" fill="#a37e27"/></g><g stroke-linecap="butt"><path d="M556.79976,234.15797v-19.72365h19.43809v19.72365z" fill="#c6b37b"/><path d="M560.17345,230.74093v-12.93476h12.74749v12.93476z" fill="#a37e27"/></g><g><path d="M423.63127,184.6796c0,16.29164 -13.46902,29.49862 -30.08391,29.49862c-16.61488,0 -30.08391,-13.20698 -30.08391,-29.49861c0,-16.29164 13.46902,-29.49862 30.08391,-29.49862c16.61488,0 30.08391,13.20699 30.08391,29.49862z" fill="#c6b37b" stroke-linecap="butt"/><path d="M423.66604,184.31531l-60.23735,0.72858" fill="none" stroke-linecap="round"/><path d="M393.76035,213.69972l-0.34978,-57.49014" fill="none" stroke-linecap="round"/><path d="M379.12685,210.59773l28.70395,-51.5612" fill="none" stroke-linecap="round"/><path d="M367.75762,199.18913l51.35318,-28.88153" fill="none" stroke-linecap="round"/><path d="M420.28391,197.86245l-53.47309,-26.36569" fill="none" stroke-linecap="round"/><path d="M378.20895,160.31125l30.86895,49.02149" fill="none" stroke-linecap="round"/><path d="M419.30013,184.6796c0,14.06467 -11.5299,25.46634 -25.75276,25.46634c-14.22286,0 -25.75277,-11.40167 -25.75277,-25.46634c0,-14.06467 11.52991,-25.46634 25.75277,-25.46634c14.22286,0 25.75276,11.40167 25.75276,25.46634z" fill="#c6b37b" stroke-linecap="butt"/></g><path d="M161.17889,233.73372v-99.71332h157.93102v99.71332z" fill="#ae9e6c" stroke-linecap="butt"/><path d="M174.92338,222.14922v-77.90955h130.15324v77.90955z" fill="#9d8e61" stroke-linecap="butt"/><path d="M305.00635,151.37649v-30.04536h30.08166v30.04536z" fill="#c6b37b" stroke-linecap="butt"/><path d="M193.29614,139.26547v-10.08167h9.61854v10.08167z" fill="#c6b37b" stroke-linecap="butt"/><path d="M221.19087,139.39705v-10.28715h9.8817v10.28715z" fill="#c6b37b" stroke-linecap="butt"/><path d="M249.21719,139.13389v-10.08167h9.61853v10.08167z" fill="#c6b37b" stroke-linecap="butt"/><path d="M277.2435,139.26547v-10.08167h9.75011v10.08167z" fill="#c6b37b" stroke-linecap="butt"/><path d="M193.27363,238.76546v-10.08167h9.61854v10.08167z" fill="#c6b37b" stroke-linecap="butt"/><path d="M221.16837,238.89704v-10.08167h9.8817v10.08167z" fill="#c6b37b" stroke-linecap="butt"/><path d="M249.19468,238.9421v-10.38989h9.61854v10.38989z" fill="#c6b37b" stroke-linecap="butt"/><path d="M277.221,238.76546v-10.08167h9.75011v10.08167z" fill="#c6b37b" stroke-linecap="butt"/><g fill="#c6b37b" stroke-linecap="butt"><path d="M314.22845,201.5137v-9.74449h10.11343v9.7445z"/><path d="M314.36003,176.11896v-9.74449h10.11343v9.7445z"/></g><g stroke-linecap="butt"><path d="M144.87477,150.98176v-30.04536h30.08166v30.04536z" fill="#c5a852"/><path d="M150.629,145.92322v-20h19.56522v20z" fill="#9d8e61"/><path d="M142.97368,129.36444v-9.74449h10.11343v9.74449z" fill="#c5a852"/><path d="M142.61655,153.29302v-9.74449h10.11343v9.7445z" fill="#c5a852"/><path d="M167.2594,152.93588v-9.74449h10.11343v9.7445z" fill="#c5a852"/><path d="M166.90226,129.00731v-9.74449h10.11343v9.7445z" fill="#c5a852"/></g><g stroke-linecap="butt"><path d="M145.282,246.91868v-30.04537h30.08167v30.04537z" fill="#c5a852"/><path d="M151.03623,241.86014v-20h19.56521v20z" fill="#9d8e61"/><path d="M143.38091,225.30137v-9.74449h10.11343v9.7445z" fill="#c5a852"/><path d="M143.02377,249.22994v-9.74449h10.11342v9.7445z" fill="#c5a852"/><path d="M167.66663,248.8728v-9.74449h10.11342v9.7445z" fill="#c5a852"/><path d="M167.30948,224.94423v-9.74449h10.11342v9.7445z" fill="#c5a852"/></g><g stroke-linecap="butt"><path d="M303.98684,247.01972v-30.04537h30.08166v30.04537z" fill="#c5a852"/><path d="M309.74107,241.96118v-20h19.56522v20z" fill="#9d8e61"/><path d="M302.08575,225.40241v-9.74449h10.11343v9.7445z" fill="#c5a852"/><path d="M301.72861,249.33098v-9.74449h10.11343v9.7445z" fill="#c5a852"/><path d="M326.37147,248.97384v-9.74449h10.11343v9.7445z" fill="#c5a852"/><path d="M326.01432,225.04527v-9.74449h10.11343v9.7445z" fill="#c5a852"/></g><g stroke-linecap="butt"><path d="M305.26484,151.2518v-30.04536h30.08166v30.04536z" fill="#c5a852"/><path d="M311.01907,146.19327v-20h19.56522v20z" fill="#9d8e61"/><path d="M303.36376,129.63449v-9.74449h10.11342v9.74449z" fill="#c5a852"/><path d="M303.00662,153.56307v-9.74449h10.11343v9.7445z" fill="#c5a852"/><path d="M327.64947,153.20593v-9.74449h10.11343v9.7445z" fill="#c5a852"/><path d="M327.29233,129.27736v-9.74449h10.11343v9.7445z" fill="#c5a852"/></g><g fill="#c6b37b" stroke-linecap="butt"><path d="M156.2529,201.29538v-9.74449h10.11342v9.7445z"/><path d="M156.38448,175.90065v-9.74449h10.11343v9.7445z"/></g><path d="M186.79133,221.74063v-77.28963h11.54632v77.28964z" fill="none" stroke-linecap="butt"/><path d="M210.64246,221.79221v-77.28963h11.54631v77.28964z" fill="none" stroke-linecap="butt"/><path d="M234.25795,221.84378v-77.28963h11.54631v77.28964z" fill="none" stroke-linecap="butt"/><path d="M257.87344,221.65972v-77.28963h11.54631v77.28964z" fill="none" stroke-linecap="butt"/><path d="M281.48893,221.94694v-77.28963h11.54631v77.28964z" fill="none" stroke-linecap="butt"/><path d="M186.74062,210.0373v-55.07238h106.51054v55.07238z" fill="none" stroke-linecap="butt"/><g><path d="M270.08391,180c0,16.29164 -13.46902,29.49862 -30.08391,29.49862c-16.61488,0 -30.08391,-13.20698 -30.08391,-29.49861c0,-16.29164 13.46902,-29.49862 30.08391,-29.49862c16.61488,0 30.08391,13.20699 30.08391,29.49862z" fill="#c6b37b" stroke-linecap="butt"/><path d="M270.11868,179.63571l-60.23735,0.72858" fill="none" stroke-linecap="round"/><path d="M239.86321,151.52998l0.34978,57.49014" fill="none" stroke-linecap="round"/><path d="M225.57949,205.91813l28.70395,-51.5612" fill="none" stroke-linecap="round"/><path d="M214.21026,194.50953l51.35318,-28.88153" fill="none" stroke-linecap="round"/><path d="M266.73654,193.18285l-53.47309,-26.36569" fill="none" stroke-linecap="round"/><path d="M224.66159,155.63165l30.86895,49.02149" fill="none" stroke-linecap="round"/><path d="M265.75277,180c0,14.06467 -11.5299,25.46634 -25.75276,25.46634c-14.22286,0 -25.75277,-11.40167 -25.75277,-25.46634c0,-14.06467 11.52991,-25.46634 25.75277,-25.46634c14.22286,0 25.75276,11.40167 25.75276,25.46634z" fill="#c6b37b" stroke-linecap="butt"/></g><g><path d="M116.93908,185.21361c0,16.29164 -13.46902,29.49862 -30.08391,29.49862c-16.61488,0 -30.08391,-13.20698 -30.08391,-29.49861c0,-16.29164 13.46902,-29.49862 30.08391,-29.49862c16.61488,0 30.08391,13.20699 30.08391,29.49862z" fill="#c6b37b" stroke-linecap="butt"/><path d="M116.97385,184.84932l-60.23735,0.72858" fill="none" stroke-linecap="round"/><path d="M87.06816,214.23373l-0.34978,-57.49014" fill="none" stroke-linecap="round"/><path d="M72.43466,211.13174l28.70395,-51.5612" fill="none" stroke-linecap="round"/><path d="M112.41861,170.84161l-51.35318,28.88153" fill="none" stroke-linecap="round"/><path d="M113.59172,198.39646l-53.47309,-26.36569" fill="none" stroke-linecap="round"/><path d="M71.51676,160.84526l30.86895,49.02149" fill="none" stroke-linecap="round"/><path d="M112.60794,185.21361c0,14.06467 -11.5299,25.46634 -25.75276,25.46634c-14.22286,0 -25.75277,-11.40167 -25.75277,-25.46634c0,-14.06467 11.52991,-25.46634 25.75277,-25.46634c14.22286,0 25.75276,11.40167 25.75276,25.46634z" fill="#c6b37b" stroke-linecap="butt"/></g><g><path d="M532.81878,184.53454c0,16.29164 -13.46902,29.49862 -30.08391,29.49862c-16.61488,0 -30.08391,-13.20698 -30.08391,-29.49861c0,-16.29164 13.46902,-29.49862 30.08391,-29.49862c16.61488,0 30.08391,13.20699 30.08391,29.49862z" fill="#c6b37b" stroke-linecap="butt"/><path d="M532.85355,184.17025l-60.23735,0.72858" fill="none" stroke-linecap="round"/><path d="M502.94786,213.55466l-0.34978,-57.49014" fill="none" stroke-linecap="round"/><path d="M488.31436,210.45267l28.70395,-51.5612" fill="none" stroke-linecap="round"/><path d="M476.94513,199.04407l51.35318,-28.88153" fill="none" stroke-linecap="round"/><path d="M529.47142,197.71739l-53.47309,-26.36569" fill="none" stroke-linecap="round"/><path d="M487.39646,160.16619l30.86895,49.02149" fill="none" stroke-linecap="round"/><path d="M528.48764,184.53454c0,14.06467 -11.5299,25.46634 -25.75276,25.46634c-14.22286,0 -25.75277,-11.40167 -25.75277,-25.46634c0,-14.06467 11.52991,-25.46634 25.75277,-25.46634c14.22286,0 25.75276,11.40167 25.75276,25.46634z" fill="#c6b37b" stroke-linecap="butt"/></g></g></g></svg>